<svg width="74" height="74" viewBox="0 0 74 74" fill="none" xmlns="http://www.w3.org/2000/svg">
<rect width="74" height="74" rx="3.33" fill="#64113F"/>
<path d="M24.2241 11.8522L20.8957 24.62H17.1309L15.0938 16.2173L12.9841 24.62H9.21921L5.9818 11.8522H9.31015L11.1471 21.1461L13.4206 11.8522H16.8399L19.0224 21.1461L20.8775 11.8522H24.2241ZM25.1654 19.5274C25.1654 18.4847 25.3594 17.5692 25.7474 16.7811C26.1475 15.993 26.6871 15.3867 27.3661 14.9623C28.0451 14.5379 28.803 14.3258 29.6396 14.3258C30.355 14.3258 30.9794 14.4713 31.5129 14.7623C32.0586 15.0533 32.4769 15.4352 32.7679 15.9081V14.4713H35.878V24.62H32.7679V23.1832C32.4647 23.656 32.0404 24.038 31.4947 24.329C30.9612 24.62 30.3368 24.7655 29.6214 24.7655C28.7969 24.7655 28.0451 24.5533 27.3661 24.1289C26.6871 23.6924 26.1475 23.0801 25.7474 22.292C25.3594 21.4917 25.1654 20.5702 25.1654 19.5274ZM32.7679 19.5456C32.7679 18.7696 32.5496 18.1573 32.1131 17.7087C31.6887 17.26 31.1674 17.0357 30.549 17.0357C29.9306 17.0357 29.4031 17.26 28.9666 17.7087C28.5423 18.1452 28.3301 18.7514 28.3301 19.5274C28.3301 20.3034 28.5423 20.9218 28.9666 21.3826C29.4031 21.8312 29.9306 22.0555 30.549 22.0555C31.1674 22.0555 31.6887 21.8312 32.1131 21.3826C32.5496 20.934 32.7679 20.3216 32.7679 19.5456ZM42.6931 21.71L44.8938 14.4713H48.204L44.6028 24.62H40.7652L37.164 14.4713H40.4924L42.6931 21.71ZM59.0798 19.3819C59.0798 19.6729 59.0616 19.9761 59.0252 20.2913H51.9866C52.0351 20.9218 52.2351 21.4068 52.5868 21.7463C52.9505 22.0737 53.3931 22.2374 53.9145 22.2374C54.6905 22.2374 55.2301 21.91 55.5332 21.2553H58.8433C58.6736 21.9222 58.3644 22.5223 57.9158 23.0559C57.4793 23.5894 56.9276 24.0077 56.2607 24.3108C55.5938 24.6139 54.8481 24.7655 54.0236 24.7655C53.0293 24.7655 52.1442 24.5533 51.3682 24.1289C50.5922 23.7045 49.9859 23.0983 49.5494 22.3102C49.1129 21.522 48.8947 20.6005 48.8947 19.5456C48.8947 18.4907 49.1069 17.5692 49.5312 16.7811C49.9677 15.993 50.574 15.3867 51.35 14.9623C52.126 14.5379 53.0172 14.3258 54.0236 14.3258C55.0057 14.3258 55.8787 14.5319 56.6426 14.9441C57.4065 15.3564 58.0006 15.9445 58.425 16.7083C58.8615 17.4722 59.0798 18.3634 59.0798 19.3819ZM55.8969 18.5635C55.8969 18.03 55.7151 17.6056 55.3513 17.2904C54.9875 16.9751 54.5329 16.8175 53.9872 16.8175C53.4658 16.8175 53.0233 16.969 52.6595 17.2722C52.3079 17.5753 52.0896 18.0057 52.0048 18.5635H55.8969Z" fill="#F9F7F7"/>
<path d="M15.27 32.8342V41.08H13.2614V37.6853H10.1369V41.08H8.12826V32.8342H10.1369V36.0644H13.2614V32.8342H15.27ZM20.9251 41.08L19.2102 37.9673H18.7286V41.08H16.72V32.8342H20.0911C20.7411 32.8342 21.2932 32.9477 21.7474 33.1748C22.2094 33.4019 22.5539 33.7151 22.781 34.1145C23.0081 34.506 23.1217 34.9446 23.1217 35.4301C23.1217 35.9782 22.9651 36.4677 22.6518 36.8983C22.3464 37.329 21.8922 37.6344 21.2893 37.8146L23.1921 41.08H20.9251ZM18.7286 36.546H19.9737C20.3417 36.546 20.6158 36.4559 20.7959 36.2758C20.9839 36.0957 21.0778 35.8412 21.0778 35.5123C21.0778 35.1991 20.9839 34.9524 20.7959 34.7723C20.6158 34.5922 20.3417 34.5021 19.9737 34.5021H18.7286V36.546Z" fill="#F9F7F7"/>
</svg>
