<svg width="147" height="147" viewBox="0 0 147 147" fill="none" xmlns="http://www.w3.org/2000/svg">
<path d="M73.4657 0C114.041 0 146.931 32.8903 146.931 73.4657C146.931 114.041 114.041 146.931 73.4657 146.931C32.8903 146.931 0 114.041 0 73.4657C0 32.8903 32.8903 0 73.4657 0Z" fill="#0161FE"/>
<path d="M112.12 83.7458C109.521 86.6086 106.401 88.4304 103.281 89.7317C100.161 91.0329 96.5214 91.5535 93.1416 91.5535C89.5018 91.5535 86.122 91.0329 82.7423 89.4714C79.3625 88.1701 76.2427 86.0881 73.6428 83.4855L62.9835 72.815C61.6836 71.5137 60.1237 70.4727 58.5638 69.9522C57.0039 69.4317 55.184 68.9111 53.3641 68.9111C51.5442 68.9111 49.9843 69.1714 48.1645 69.9522C46.6046 70.4727 45.0447 71.5137 43.7447 72.815L36.9852 79.5817C35.6853 80.8829 34.1254 81.6637 32.3055 81.6637C30.4856 81.6637 28.9257 80.8829 27.6258 79.5817C26.3258 78.2804 25.5459 76.7188 25.5459 74.897C25.5459 73.0752 26.0659 71.5137 27.6258 69.9522L34.1254 63.4458C36.7252 60.8432 39.845 59.0214 42.9648 57.4599C46.3446 56.1586 49.7244 55.3778 53.1041 55.3778C56.4839 55.3778 60.1237 56.1586 63.2435 57.4599C66.6233 58.7611 69.4831 60.8432 72.0829 63.4458L82.7423 74.1163C84.0422 75.4176 85.6021 76.4586 87.422 77.2393C88.9819 77.7599 90.8017 78.2804 92.6216 78.2804C94.4415 78.2804 96.2614 78.0201 97.8213 77.2393C99.6412 76.4586 100.941 75.4176 102.501 74.1163L109.261 67.3496C110.56 66.0483 112.12 65.2676 113.94 65.2676C115.76 65.2676 117.32 65.7881 118.62 67.3496C119.92 68.6509 120.7 70.2124 120.7 72.0342C120.7 73.856 120.18 75.4176 118.62 76.7188L112.12 83.7458Z" fill="white"/>
</svg>
