<svg width="202" height="52" viewBox="0 0 202 52" fill="none" xmlns="http://www.w3.org/2000/svg">
<path d="M25.8037 0C40.0553 0 51.6075 11.5522 51.6075 25.8037C51.6075 40.0553 40.0553 51.6075 25.8037 51.6075C11.5522 51.6075 0 40.0553 0 25.8037C0 11.5522 11.5522 0 25.8037 0Z" fill="white"/>
<path d="M76.0598 13.8443H78.3602L81.8455 22.6273L85.3657 13.8443H87.7008L83.379 24.4049L88.1191 35.5927L97.0764 13.67H99.7252L89.2344 38.4159H87.0735L81.8803 26.1824L76.6523 38.4159H74.5263L64.0703 13.67H66.6843L75.6765 35.5927L80.3816 24.4049L76.0598 13.8443Z" fill="white"/>
<path d="M99.4172 33.1879C99.4172 32.0493 99.7425 31.0734 100.393 30.2602C101.044 29.4237 101.938 28.7847 103.077 28.3433C104.239 27.8786 105.575 27.6462 107.085 27.6462C107.968 27.6462 108.886 27.7159 109.838 27.8553C110.791 27.9947 111.639 28.2039 112.383 28.4827V26.9491C112.383 25.4156 111.93 24.1957 111.023 23.2895C110.117 22.3834 108.862 21.9303 107.259 21.9303C106.283 21.9303 105.319 22.1162 104.366 22.4879C103.437 22.8365 102.461 23.3593 101.439 24.0563L100.533 22.3834C101.718 21.5701 102.879 20.966 104.018 20.571C105.156 20.1528 106.318 19.9436 107.503 19.9436C109.734 19.9436 111.5 20.5826 112.801 21.8606C114.102 23.1385 114.753 24.9044 114.753 27.1583V35.5579C114.753 35.8832 114.822 36.1272 114.962 36.2898C115.101 36.4292 115.322 36.5105 115.624 36.5338V38.4159C115.368 38.4391 115.148 38.4623 114.962 38.4856C114.776 38.5088 114.637 38.5088 114.544 38.4856C113.963 38.4623 113.521 38.2764 113.219 37.9279C112.917 37.5794 112.754 37.2076 112.731 36.8126L112.696 35.4882C111.883 36.5338 110.826 37.347 109.525 37.9279C108.223 38.4856 106.899 38.7644 105.551 38.7644C104.39 38.7644 103.332 38.5204 102.38 38.0325C101.45 37.5213 100.718 36.8475 100.184 36.011C99.6728 35.1513 99.4172 34.2102 99.4172 33.1879ZM111.581 34.582C111.837 34.2567 112.034 33.943 112.174 33.641C112.313 33.3389 112.383 33.0717 112.383 32.8393V30.1905C111.593 29.8884 110.768 29.6561 109.908 29.4934C109.072 29.3308 108.224 29.2495 107.364 29.2495C105.668 29.2495 104.297 29.5864 103.251 30.2602C102.206 30.934 101.683 31.8518 101.683 33.0136C101.683 33.6874 101.857 34.3264 102.206 34.9305C102.554 35.5114 103.065 35.9994 103.739 36.3944C104.413 36.7661 105.203 36.952 106.109 36.952C107.248 36.952 108.305 36.7313 109.281 36.2898C110.28 35.8483 111.047 35.2791 111.581 34.582Z" fill="white"/>
<path d="M124.731 38.4159L117.377 20.2573H119.852L126.055 36.0458L132.294 20.2573H134.629L127.275 38.4159H124.731Z" fill="white"/>
<path d="M145.142 38.7644C143.841 38.7644 142.633 38.5204 141.517 38.0325C140.402 37.5213 139.438 36.8358 138.624 35.9761C137.811 35.0932 137.172 34.0824 136.708 32.9439C136.266 31.8054 136.045 30.5855 136.045 29.2843C136.045 27.5881 136.429 26.0313 137.195 24.614C137.985 23.1966 139.066 22.0697 140.437 21.2332C141.808 20.3735 143.364 19.9436 145.107 19.9436C146.896 19.9436 148.453 20.3735 149.777 21.2332C151.125 22.0929 152.182 23.2315 152.949 24.6488C153.716 26.043 154.099 27.5765 154.099 29.2495C154.099 29.4353 154.099 29.6212 154.099 29.8071C154.099 29.9698 154.088 30.0975 154.064 30.1905H138.52C138.636 31.4917 138.996 32.6535 139.6 33.6758C140.228 34.6749 141.029 35.4766 142.005 36.0807C143.004 36.6616 144.085 36.952 145.247 36.952C146.432 36.952 147.547 36.65 148.592 36.0458C149.661 35.4417 150.405 34.6517 150.823 33.6758L152.879 34.2335C152.508 35.0932 151.938 35.8716 151.172 36.5686C150.405 37.2657 149.499 37.8117 148.453 38.2067C147.431 38.5785 146.327 38.7644 145.142 38.7644ZM138.45 28.4827H151.869C151.776 27.1583 151.416 25.9965 150.788 24.9974C150.184 23.9982 149.382 23.2198 148.383 22.6622C147.407 22.0813 146.327 21.7909 145.142 21.7909C143.957 21.7909 142.877 22.0813 141.901 22.6622C140.925 23.2198 140.123 24.0098 139.496 25.0322C138.892 26.0313 138.543 27.1815 138.45 28.4827Z" fill="white"/>
<path d="M178.494 13.9489V38.4159H172.534V28.3433H163.263V38.4159H157.303V13.9489H163.263V23.5335H172.534V13.9489H178.494Z" fill="white"/>
<path d="M195.274 38.4159L190.185 29.1797H188.756V38.4159H182.796V13.9489H192.799C194.727 13.9489 196.366 14.2858 197.713 14.9596C199.084 15.6334 200.107 16.5629 200.78 17.7479C201.454 18.9097 201.791 20.2108 201.791 21.6514C201.791 23.2779 201.326 24.7301 200.397 26.0081C199.491 27.2861 198.143 28.1922 196.354 28.7267L202 38.4159H195.274ZM188.756 24.9625H192.45C193.542 24.9625 194.356 24.6953 194.89 24.1609C195.448 23.6265 195.727 22.8713 195.727 21.8954C195.727 20.966 195.448 20.2341 194.89 19.6997C194.356 19.1652 193.542 18.898 192.45 18.898H188.756V24.9625Z" fill="white"/>
<path d="M39.3807 29.4144C38.4675 30.4199 37.3717 31.0598 36.2759 31.5168C35.1802 31.9739 33.9018 32.1567 32.7147 32.1567C31.4362 32.1567 30.2491 31.9739 29.062 31.4254C27.8749 30.9684 26.7792 30.2371 25.866 29.323L22.1221 25.5751C21.6655 25.1181 21.1176 24.7524 20.5697 24.5696C20.0218 24.3868 19.3826 24.2039 18.7434 24.2039C18.1042 24.2039 17.5563 24.2954 16.9171 24.5696C16.3692 24.7524 15.8213 25.1181 15.3647 25.5751L12.9905 27.9518C12.534 28.4089 11.9861 28.6831 11.3469 28.6831C10.7076 28.6831 10.1598 28.4089 9.70318 27.9518C9.2466 27.4948 8.97266 26.9463 8.97266 26.3064C8.97266 25.6665 9.15529 25.1181 9.70318 24.5696L11.9861 22.2843C12.8992 21.3702 13.995 20.7303 15.0908 20.1819C16.2779 19.7248 17.465 19.4506 18.6521 19.4506C19.8392 19.4506 21.1176 19.7248 22.2134 20.1819C23.4005 20.6389 24.405 21.3702 25.3181 22.2843L29.062 26.0322C29.5186 26.4892 30.0665 26.8549 30.7057 27.1291C31.2536 27.3119 31.8928 27.4948 32.532 27.4948C33.1712 27.4948 33.8104 27.4033 34.3583 27.1291C34.9975 26.8549 35.4541 26.4892 36.002 26.0322L38.3762 23.6555C38.8328 23.1984 39.3807 22.9242 40.0199 22.9242C40.6591 22.9242 41.207 23.107 41.6636 23.6555C42.1201 24.1125 42.3941 24.661 42.3941 25.3009C42.3941 25.9408 42.2114 26.4892 41.6636 26.9463L39.3807 29.4144Z" fill="#0161FE"/>
</svg>
