<svg width="660" height="561" viewBox="0 0 660 561" fill="none" xmlns="http://www.w3.org/2000/svg">
<rect x="330" width="330" height="88.4194" rx="20" fill="white"/>
<path d="M355.093 64.4194C378.509 64.4194 370.292 44.0186 393.708 44.0186C417.124 44.0186 412.551 28.7181 435.967 28.7181C459.383 28.7181 466.467 64.4194 489.883 64.4194C513.299 64.4194 528.398 45.1115 551.814 45.1115" stroke="#E1057C" stroke-width="3" stroke-linecap="round"/>
<path d="M354 60.4121C372.944 70.2482 379.425 48.1939 402.293 48.1939C425.16 48.1939 421.369 24 444.237 24C467.105 24 466.668 58.2053 489.536 58.2053C512.404 58.2053 532.871 50.9403 554 35.2755" stroke="#0096C7" stroke-opacity="0.07" stroke-width="11" stroke-linecap="round"/>
<path d="M354.364 60.7764C370.393 69.5196 379.425 48.1939 402.293 48.1939C425.16 48.1939 421.369 24 444.237 24C467.105 24 466.668 58.2053 489.536 58.2053C512.404 58.2053 535.056 48.1939 552.907 36.0041" stroke="#0089ED" stroke-width="4" stroke-linecap="round"/>
<path d="M590.352 43.2058V46.1472H578.656V43.2058H590.352ZM586.109 38.5769V50.9987H582.91V38.5769H586.109ZM595.926 44.9402L593.23 44.2956L594.203 35.6472H603.789V38.3777H596.98L596.559 42.1628C596.785 42.03 597.129 41.8894 597.59 41.7409C598.051 41.5847 598.566 41.5066 599.137 41.5066C599.965 41.5066 600.699 41.6355 601.34 41.8933C601.98 42.1511 602.523 42.5261 602.969 43.0183C603.422 43.5105 603.766 44.112 604 44.823C604.234 45.5339 604.352 46.3386 604.352 47.237C604.352 47.9948 604.234 48.7175 604 49.405C603.766 50.0847 603.41 50.6941 602.934 51.2331C602.457 51.7644 601.859 52.1823 601.141 52.487C600.422 52.7917 599.57 52.9441 598.586 52.9441C597.852 52.9441 597.141 52.8347 596.453 52.6159C595.773 52.3972 595.16 52.073 594.613 51.6433C594.074 51.2136 593.641 50.6941 593.312 50.0847C592.992 49.4675 592.824 48.7644 592.809 47.9753H596.16C596.207 48.4597 596.332 48.8777 596.535 49.2292C596.746 49.573 597.023 49.8386 597.367 50.0261C597.711 50.2136 598.113 50.3073 598.574 50.3073C599.004 50.3073 599.371 50.2253 599.676 50.0612C599.98 49.8972 600.227 49.6706 600.414 49.3816C600.602 49.0847 600.738 48.7409 600.824 48.3503C600.918 47.9519 600.965 47.5222 600.965 47.0612C600.965 46.6003 600.91 46.1823 600.801 45.8073C600.691 45.4323 600.523 45.1081 600.297 44.8347C600.07 44.5612 599.781 44.3503 599.43 44.2019C599.086 44.0534 598.684 43.9792 598.223 43.9792C597.598 43.9792 597.113 44.0769 596.77 44.2722C596.434 44.4675 596.152 44.6902 595.926 44.9402ZM615.738 35.4714H616.23V38.1667H616.031C615.141 38.1667 614.348 38.2995 613.652 38.5652C612.957 38.8308 612.367 39.2097 611.883 39.7019C611.406 40.1862 611.039 40.7722 610.781 41.4597C610.531 42.1472 610.406 42.9167 610.406 43.7683V46.6042C610.406 47.2136 610.465 47.7527 610.582 48.2214C610.707 48.6823 610.883 49.0691 611.109 49.3816C611.344 49.6862 611.617 49.9167 611.93 50.073C612.242 50.2214 612.594 50.2956 612.984 50.2956C613.352 50.2956 613.684 50.2175 613.98 50.0612C614.285 49.905 614.543 49.6862 614.754 49.405C614.973 49.1159 615.137 48.78 615.246 48.3972C615.363 48.0066 615.422 47.5808 615.422 47.1198C615.422 46.6589 615.363 46.2331 615.246 45.8425C615.137 45.4519 614.973 45.1159 614.754 44.8347C614.535 44.5456 614.27 44.323 613.957 44.1667C613.645 44.0105 613.293 43.9323 612.902 43.9323C612.371 43.9323 611.902 44.0573 611.496 44.3073C611.098 44.5495 610.785 44.862 610.559 45.2448C610.332 45.6277 610.211 46.03 610.195 46.4519L609.176 45.7956C609.199 45.1941 609.324 44.6237 609.551 44.0847C609.785 43.5456 610.105 43.0691 610.512 42.655C610.926 42.2331 611.422 41.905 612 41.6706C612.578 41.4284 613.23 41.3073 613.957 41.3073C614.754 41.3073 615.453 41.4597 616.055 41.7644C616.664 42.0691 617.172 42.487 617.578 43.0183C617.984 43.5495 618.289 44.1628 618.492 44.8581C618.695 45.5534 618.797 46.2956 618.797 47.0847C618.797 47.9128 618.66 48.6823 618.387 49.3933C618.121 50.1042 617.734 50.7253 617.227 51.2566C616.727 51.7878 616.125 52.2019 615.422 52.4987C614.719 52.7956 613.93 52.9441 613.055 52.9441C612.148 52.9441 611.324 52.78 610.582 52.4519C609.848 52.1159 609.215 51.6472 608.684 51.0456C608.152 50.4441 607.742 49.7292 607.453 48.9011C607.172 48.073 607.031 47.1667 607.031 46.1823V44.8698C607.031 43.4948 607.23 42.237 607.629 41.0964C608.035 39.948 608.617 38.9558 609.375 38.1198C610.133 37.2761 611.047 36.6237 612.117 36.1628C613.188 35.7019 614.395 35.4714 615.738 35.4714ZM621.266 39.8308V38.9284C621.266 38.28 621.406 37.6902 621.688 37.1589C621.969 36.6277 622.383 36.2019 622.93 35.8816C623.477 35.5612 624.148 35.4011 624.945 35.4011C625.766 35.4011 626.449 35.5612 626.996 35.8816C627.551 36.2019 627.965 36.6277 628.238 37.1589C628.52 37.6902 628.66 38.28 628.66 38.9284V39.8308C628.66 40.4636 628.52 41.0456 628.238 41.5769C627.965 42.1081 627.555 42.5339 627.008 42.8542C626.461 43.1745 625.785 43.3347 624.98 43.3347C624.168 43.3347 623.484 43.1745 622.93 42.8542C622.383 42.5339 621.969 42.1081 621.688 41.5769C621.406 41.0456 621.266 40.4636 621.266 39.8308ZM623.504 38.9284V39.8308C623.504 40.1042 623.555 40.3659 623.656 40.6159C623.766 40.8581 623.93 41.0573 624.148 41.2136C624.375 41.362 624.648 41.4362 624.969 41.4362C625.305 41.4362 625.578 41.362 625.789 41.2136C626 41.0573 626.156 40.8581 626.258 40.6159C626.359 40.3659 626.41 40.1042 626.41 39.8308V38.9284C626.41 38.6394 626.355 38.3737 626.246 38.1316C626.145 37.8816 625.984 37.6823 625.766 37.5339C625.555 37.3777 625.281 37.2995 624.945 37.2995C624.633 37.2995 624.367 37.3777 624.148 37.5339C623.93 37.6823 623.766 37.8816 623.656 38.1316C623.555 38.3737 623.504 38.6394 623.504 38.9284ZM629.422 49.4284V48.5261C629.422 47.8855 629.562 47.2995 629.844 46.7683C630.133 46.237 630.551 45.8112 631.098 45.4909C631.652 45.1706 632.332 45.0105 633.137 45.0105C633.949 45.0105 634.629 45.1706 635.176 45.4909C635.723 45.8112 636.137 46.237 636.418 46.7683C636.699 47.2995 636.84 47.8855 636.84 48.5261V49.4284C636.84 50.0691 636.699 50.655 636.418 51.1862C636.145 51.7175 635.734 52.1433 635.188 52.4636C634.641 52.7839 633.965 52.9441 633.16 52.9441C632.348 52.9441 631.664 52.7839 631.109 52.4636C630.555 52.1433 630.133 51.7175 629.844 51.1862C629.562 50.655 629.422 50.0691 629.422 49.4284ZM631.672 48.5261V49.4284C631.672 49.7097 631.734 49.9753 631.859 50.2253C631.984 50.4753 632.156 50.6745 632.375 50.823C632.602 50.9714 632.863 51.0456 633.16 51.0456C633.535 51.0456 633.828 50.9714 634.039 50.823C634.25 50.6745 634.395 50.4753 634.473 50.2253C634.559 49.9753 634.602 49.7097 634.602 49.4284V48.5261C634.602 48.2448 634.547 47.9831 634.438 47.7409C634.328 47.4909 634.164 47.2917 633.945 47.1433C633.734 46.987 633.465 46.9089 633.137 46.9089C632.809 46.9089 632.535 46.987 632.316 47.1433C632.105 47.2917 631.945 47.4909 631.836 47.7409C631.727 47.9831 631.672 48.2448 631.672 48.5261ZM633.969 38.0847L625.637 51.4206L623.996 50.5534L632.328 37.2175L633.969 38.0847Z" fill="black"/>
<rect y="446" width="330" height="115" rx="20" fill="white"/>
<rect x="29" y="536" width="65" height="13" rx="6.5" transform="rotate(-90 29 536)" fill="#E9EDF7"/>
<rect x="29" y="536" width="38" height="13" rx="6.5" transform="rotate(-90 29 536)" fill="url(#paint0_linear_267_73)"/>
<rect x="54" y="536" width="65" height="13" rx="6.5" transform="rotate(-90 54 536)" fill="#E9EDF7"/>
<rect x="54" y="536" width="20" height="13" rx="6.5" transform="rotate(-90 54 536)" fill="url(#paint1_linear_267_73)"/>
<rect x="79" y="536" width="65" height="13" rx="6.5" transform="rotate(-90 79 536)" fill="#E9EDF7"/>
<rect x="79" y="536" width="40" height="13" rx="6.5" transform="rotate(-90 79 536)" fill="url(#paint2_linear_267_73)"/>
<rect x="104" y="536" width="65" height="13" rx="6.5" transform="rotate(-90 104 536)" fill="#E9EDF7"/>
<rect x="104" y="536" width="33" height="13" rx="6.5" transform="rotate(-90 104 536)" fill="url(#paint3_linear_267_73)"/>
<rect x="129" y="536" width="65" height="13" rx="6.5" transform="rotate(-90 129 536)" fill="#E9EDF7"/>
<rect x="129" y="536" width="43" height="13" rx="6.5" transform="rotate(-90 129 536)" fill="url(#paint4_linear_267_73)"/>
<rect x="154" y="536" width="65" height="13" rx="6.5" transform="rotate(-90 154 536)" fill="#E9EDF7"/>
<rect x="154" y="536" width="57" height="13" rx="6.5" transform="rotate(-90 154 536)" fill="url(#paint5_linear_267_73)"/>
<rect x="179" y="536" width="65" height="13" rx="6.5" transform="rotate(-90 179 536)" fill="#E9EDF7"/>
<rect x="179" y="536" width="36" height="13" rx="6.5" transform="rotate(-90 179 536)" fill="url(#paint6_linear_267_73)"/>
<path d="M256.668 507.324C256.668 508.395 256.418 509.297 255.918 510.031C255.418 510.758 254.73 511.309 253.855 511.684C252.988 512.051 252.004 512.234 250.902 512.234C249.801 512.234 248.812 512.051 247.938 511.684C247.062 511.309 246.371 510.758 245.863 510.031C245.355 509.297 245.102 508.395 245.102 507.324C245.102 506.605 245.246 505.957 245.535 505.379C245.824 504.793 246.227 504.293 246.742 503.879C247.266 503.457 247.879 503.137 248.582 502.918C249.285 502.691 250.051 502.578 250.879 502.578C251.988 502.578 252.98 502.773 253.855 503.164C254.73 503.555 255.418 504.105 255.918 504.816C256.418 505.527 256.668 506.363 256.668 507.324ZM253.27 507.102C253.27 506.578 253.168 506.129 252.965 505.754C252.77 505.371 252.492 505.078 252.133 504.875C251.773 504.672 251.355 504.57 250.879 504.57C250.402 504.57 249.984 504.672 249.625 504.875C249.266 505.078 248.984 505.371 248.781 505.754C248.586 506.129 248.488 506.578 248.488 507.102C248.488 507.617 248.586 508.062 248.781 508.438C248.984 508.812 249.266 509.102 249.625 509.305C249.992 509.5 250.418 509.598 250.902 509.598C251.387 509.598 251.805 509.5 252.156 509.305C252.516 509.102 252.789 508.812 252.977 508.438C253.172 508.062 253.27 507.617 253.27 507.102ZM256.305 499.461C256.305 500.328 256.074 501.098 255.613 501.77C255.152 502.434 254.512 502.953 253.691 503.328C252.879 503.703 251.949 503.891 250.902 503.891C249.848 503.891 248.91 503.703 248.09 503.328C247.27 502.953 246.629 502.434 246.168 501.77C245.707 501.098 245.477 500.328 245.477 499.461C245.477 498.43 245.707 497.562 246.168 496.859C246.637 496.148 247.277 495.609 248.09 495.242C248.91 494.875 249.84 494.691 250.879 494.691C251.934 494.691 252.867 494.875 253.68 495.242C254.5 495.609 255.141 496.148 255.602 496.859C256.07 497.562 256.305 498.43 256.305 499.461ZM252.93 499.613C252.93 499.152 252.848 498.754 252.684 498.418C252.52 498.074 252.285 497.809 251.98 497.621C251.684 497.434 251.316 497.34 250.879 497.34C250.457 497.34 250.094 497.43 249.789 497.609C249.492 497.789 249.262 498.051 249.098 498.395C248.941 498.73 248.863 499.137 248.863 499.613C248.863 500.074 248.941 500.48 249.098 500.832C249.262 501.176 249.496 501.445 249.801 501.641C250.105 501.836 250.473 501.934 250.902 501.934C251.332 501.934 251.695 501.836 251.992 501.641C252.297 501.445 252.527 501.176 252.684 500.832C252.848 500.48 252.93 500.074 252.93 499.613ZM270.949 507.324C270.949 508.395 270.699 509.297 270.199 510.031C269.699 510.758 269.012 511.309 268.137 511.684C267.27 512.051 266.285 512.234 265.184 512.234C264.082 512.234 263.094 512.051 262.219 511.684C261.344 511.309 260.652 510.758 260.145 510.031C259.637 509.297 259.383 508.395 259.383 507.324C259.383 506.605 259.527 505.957 259.816 505.379C260.105 504.793 260.508 504.293 261.023 503.879C261.547 503.457 262.16 503.137 262.863 502.918C263.566 502.691 264.332 502.578 265.16 502.578C266.27 502.578 267.262 502.773 268.137 503.164C269.012 503.555 269.699 504.105 270.199 504.816C270.699 505.527 270.949 506.363 270.949 507.324ZM267.551 507.102C267.551 506.578 267.449 506.129 267.246 505.754C267.051 505.371 266.773 505.078 266.414 504.875C266.055 504.672 265.637 504.57 265.16 504.57C264.684 504.57 264.266 504.672 263.906 504.875C263.547 505.078 263.266 505.371 263.062 505.754C262.867 506.129 262.77 506.578 262.77 507.102C262.77 507.617 262.867 508.062 263.062 508.438C263.266 508.812 263.547 509.102 263.906 509.305C264.273 509.5 264.699 509.598 265.184 509.598C265.668 509.598 266.086 509.5 266.438 509.305C266.797 509.102 267.07 508.812 267.258 508.438C267.453 508.062 267.551 507.617 267.551 507.102ZM270.586 499.461C270.586 500.328 270.355 501.098 269.895 501.77C269.434 502.434 268.793 502.953 267.973 503.328C267.16 503.703 266.23 503.891 265.184 503.891C264.129 503.891 263.191 503.703 262.371 503.328C261.551 502.953 260.91 502.434 260.449 501.77C259.988 501.098 259.758 500.328 259.758 499.461C259.758 498.43 259.988 497.562 260.449 496.859C260.918 496.148 261.559 495.609 262.371 495.242C263.191 494.875 264.121 494.691 265.16 494.691C266.215 494.691 267.148 494.875 267.961 495.242C268.781 495.609 269.422 496.148 269.883 496.859C270.352 497.562 270.586 498.43 270.586 499.461ZM267.211 499.613C267.211 499.152 267.129 498.754 266.965 498.418C266.801 498.074 266.566 497.809 266.262 497.621C265.965 497.434 265.598 497.34 265.16 497.34C264.738 497.34 264.375 497.43 264.07 497.609C263.773 497.789 263.543 498.051 263.379 498.395C263.223 498.73 263.145 499.137 263.145 499.613C263.145 500.074 263.223 500.48 263.379 500.832C263.543 501.176 263.777 501.445 264.082 501.641C264.387 501.836 264.754 501.934 265.184 501.934C265.613 501.934 265.977 501.836 266.273 501.641C266.578 501.445 266.809 501.176 266.965 500.832C267.129 500.48 267.211 500.074 267.211 499.613ZM273.688 499.121V498.219C273.688 497.57 273.828 496.98 274.109 496.449C274.391 495.918 274.805 495.492 275.352 495.172C275.898 494.852 276.57 494.691 277.367 494.691C278.188 494.691 278.871 494.852 279.418 495.172C279.973 495.492 280.387 495.918 280.66 496.449C280.941 496.98 281.082 497.57 281.082 498.219V499.121C281.082 499.754 280.941 500.336 280.66 500.867C280.387 501.398 279.977 501.824 279.43 502.145C278.883 502.465 278.207 502.625 277.402 502.625C276.59 502.625 275.906 502.465 275.352 502.145C274.805 501.824 274.391 501.398 274.109 500.867C273.828 500.336 273.688 499.754 273.688 499.121ZM275.926 498.219V499.121C275.926 499.395 275.977 499.656 276.078 499.906C276.188 500.148 276.352 500.348 276.57 500.504C276.797 500.652 277.07 500.727 277.391 500.727C277.727 500.727 278 500.652 278.211 500.504C278.422 500.348 278.578 500.148 278.68 499.906C278.781 499.656 278.832 499.395 278.832 499.121V498.219C278.832 497.93 278.777 497.664 278.668 497.422C278.566 497.172 278.406 496.973 278.188 496.824C277.977 496.668 277.703 496.59 277.367 496.59C277.055 496.59 276.789 496.668 276.57 496.824C276.352 496.973 276.188 497.172 276.078 497.422C275.977 497.664 275.926 497.93 275.926 498.219ZM281.844 508.719V507.816C281.844 507.176 281.984 506.59 282.266 506.059C282.555 505.527 282.973 505.102 283.52 504.781C284.074 504.461 284.754 504.301 285.559 504.301C286.371 504.301 287.051 504.461 287.598 504.781C288.145 505.102 288.559 505.527 288.84 506.059C289.121 506.59 289.262 507.176 289.262 507.816V508.719C289.262 509.359 289.121 509.945 288.84 510.477C288.566 511.008 288.156 511.434 287.609 511.754C287.062 512.074 286.387 512.234 285.582 512.234C284.77 512.234 284.086 512.074 283.531 511.754C282.977 511.434 282.555 511.008 282.266 510.477C281.984 509.945 281.844 509.359 281.844 508.719ZM284.094 507.816V508.719C284.094 509 284.156 509.266 284.281 509.516C284.406 509.766 284.578 509.965 284.797 510.113C285.023 510.262 285.285 510.336 285.582 510.336C285.957 510.336 286.25 510.262 286.461 510.113C286.672 509.965 286.816 509.766 286.895 509.516C286.98 509.266 287.023 509 287.023 508.719V507.816C287.023 507.535 286.969 507.273 286.859 507.031C286.75 506.781 286.586 506.582 286.367 506.434C286.156 506.277 285.887 506.199 285.559 506.199C285.23 506.199 284.957 506.277 284.738 506.434C284.527 506.582 284.367 506.781 284.258 507.031C284.148 507.273 284.094 507.535 284.094 507.816ZM286.391 497.375L278.059 510.711L276.418 509.844L284.75 496.508L286.391 497.375Z" fill="black"/>
<g filter="url(#filter0_d_267_73)">
<rect x="45" y="125" width="570.92" height="283.485" rx="34.6012" fill="white"/>
<rect x="86.5215" y="166.521" width="123.061" height="43.4601" rx="21.7301" fill="#E9FFEB"/>
<path d="M115.867 186.372V188.221H108.684V186.372H115.867ZM109.26 180.722V194.252H106.928V180.722H109.26ZM117.66 180.722V194.252H115.337V180.722H117.66ZM123.478 184.197V194.252H121.229V184.197H123.478ZM121.081 181.558C121.081 181.218 121.192 180.936 121.415 180.713C121.644 180.483 121.96 180.369 122.363 180.369C122.759 180.369 123.072 180.483 123.301 180.713C123.531 180.936 123.645 181.218 123.645 181.558C123.645 181.893 123.531 182.172 123.301 182.395C123.072 182.618 122.759 182.729 122.363 182.729C121.96 182.729 121.644 182.618 121.415 182.395C121.192 182.172 121.081 181.893 121.081 181.558ZM133.236 184.197H135.271V193.973C135.271 194.877 135.079 195.645 134.695 196.277C134.311 196.909 133.775 197.389 133.087 197.718C132.399 198.052 131.603 198.219 130.699 198.219C130.315 198.219 129.887 198.164 129.417 198.052C128.952 197.941 128.5 197.761 128.06 197.513C127.626 197.272 127.264 196.953 126.973 196.556L128.023 195.237C128.382 195.664 128.779 195.977 129.212 196.175C129.646 196.373 130.101 196.472 130.578 196.472C131.092 196.472 131.529 196.376 131.888 196.184C132.254 195.998 132.536 195.723 132.734 195.357C132.932 194.992 133.031 194.546 133.031 194.019V186.474L133.236 184.197ZM126.406 189.336V189.141C126.406 188.379 126.499 187.685 126.685 187.059C126.871 186.427 127.137 185.885 127.484 185.433C127.831 184.975 128.252 184.625 128.748 184.383C129.243 184.135 129.804 184.011 130.429 184.011C131.08 184.011 131.634 184.129 132.093 184.365C132.557 184.6 132.945 184.938 133.254 185.377C133.564 185.811 133.806 186.331 133.979 186.938C134.159 187.539 134.292 188.208 134.379 188.946V189.568C134.298 190.287 134.162 190.943 133.97 191.538C133.778 192.133 133.524 192.647 133.208 193.081C132.892 193.514 132.502 193.849 132.037 194.084C131.579 194.32 131.037 194.437 130.411 194.437C129.798 194.437 129.243 194.31 128.748 194.056C128.258 193.802 127.837 193.446 127.484 192.988C127.137 192.529 126.871 191.99 126.685 191.371C126.499 190.745 126.406 190.067 126.406 189.336ZM128.645 189.141V189.336C128.645 189.794 128.689 190.222 128.775 190.618C128.868 191.015 129.008 191.365 129.194 191.668C129.386 191.966 129.627 192.201 129.918 192.374C130.216 192.542 130.566 192.625 130.968 192.625C131.495 192.625 131.926 192.514 132.26 192.291C132.601 192.068 132.861 191.767 133.041 191.389C133.226 191.005 133.357 190.578 133.431 190.107V188.425C133.394 188.06 133.316 187.719 133.199 187.403C133.087 187.087 132.935 186.811 132.743 186.576C132.551 186.334 132.31 186.149 132.018 186.019C131.727 185.882 131.383 185.814 130.987 185.814C130.584 185.814 130.234 185.901 129.937 186.074C129.64 186.248 129.395 186.486 129.203 186.79C129.017 187.093 128.878 187.446 128.785 187.849C128.692 188.252 128.645 188.682 128.645 189.141ZM140.67 179.979V194.252H138.44V179.979H140.67ZM140.28 188.853L139.555 188.843C139.562 188.15 139.658 187.508 139.843 186.92C140.035 186.331 140.302 185.82 140.643 185.387C140.99 184.947 141.405 184.609 141.888 184.374C142.371 184.132 142.907 184.011 143.495 184.011C143.991 184.011 144.437 184.08 144.833 184.216C145.236 184.352 145.583 184.572 145.874 184.876C146.165 185.173 146.385 185.563 146.534 186.046C146.689 186.523 146.766 187.106 146.766 187.793V194.252H144.517V187.775C144.517 187.292 144.446 186.908 144.304 186.623C144.167 186.338 143.966 186.133 143.7 186.009C143.433 185.879 143.108 185.814 142.724 185.814C142.321 185.814 141.965 185.895 141.655 186.056C141.352 186.217 141.098 186.437 140.893 186.715C140.689 186.994 140.534 187.316 140.429 187.682C140.33 188.047 140.28 188.438 140.28 188.853ZM152.296 179.979V194.252H150.047V179.979H152.296ZM158.012 184.197V194.252H155.763V184.197H158.012ZM155.614 181.558C155.614 181.218 155.726 180.936 155.949 180.713C156.178 180.483 156.494 180.369 156.897 180.369C157.293 180.369 157.606 180.483 157.835 180.713C158.064 180.936 158.179 181.218 158.179 181.558C158.179 181.893 158.064 182.172 157.835 182.395C157.606 182.618 157.293 182.729 156.897 182.729C156.494 182.729 156.178 182.618 155.949 182.395C155.726 182.172 155.614 181.893 155.614 181.558ZM167.769 184.197H169.804V193.973C169.804 194.877 169.612 195.645 169.228 196.277C168.844 196.909 168.308 197.389 167.621 197.718C166.933 198.052 166.137 198.219 165.233 198.219C164.849 198.219 164.421 198.164 163.95 198.052C163.486 197.941 163.033 197.761 162.594 197.513C162.16 197.272 161.798 196.953 161.506 196.556L162.556 195.237C162.916 195.664 163.312 195.977 163.746 196.175C164.179 196.373 164.635 196.472 165.112 196.472C165.626 196.472 166.063 196.376 166.422 196.184C166.788 195.998 167.069 195.723 167.268 195.357C167.466 194.992 167.565 194.546 167.565 194.019V186.474L167.769 184.197ZM160.94 189.336V189.141C160.94 188.379 161.032 187.685 161.218 187.059C161.404 186.427 161.671 185.885 162.017 185.433C162.364 184.975 162.786 184.625 163.281 184.383C163.777 184.135 164.337 184.011 164.963 184.011C165.614 184.011 166.168 184.129 166.626 184.365C167.091 184.6 167.478 184.938 167.788 185.377C168.098 185.811 168.339 186.331 168.513 186.938C168.692 187.539 168.826 188.208 168.912 188.946V189.568C168.832 190.287 168.696 190.943 168.504 191.538C168.311 192.133 168.057 192.647 167.742 193.081C167.426 193.514 167.035 193.849 166.571 194.084C166.112 194.32 165.57 194.437 164.945 194.437C164.331 194.437 163.777 194.31 163.281 194.056C162.792 193.802 162.371 193.446 162.017 192.988C161.671 192.529 161.404 191.99 161.218 191.371C161.032 190.745 160.94 190.067 160.94 189.336ZM163.179 189.141V189.336C163.179 189.794 163.222 190.222 163.309 190.618C163.402 191.015 163.541 191.365 163.727 191.668C163.919 191.966 164.161 192.201 164.452 192.374C164.749 192.542 165.099 192.625 165.502 192.625C166.029 192.625 166.459 192.514 166.794 192.291C167.134 192.068 167.395 191.767 167.574 191.389C167.76 191.005 167.89 190.578 167.965 190.107V188.425C167.927 188.06 167.85 187.719 167.732 187.403C167.621 187.087 167.469 186.811 167.277 186.576C167.085 186.334 166.843 186.149 166.552 186.019C166.261 185.882 165.917 185.814 165.521 185.814C165.118 185.814 164.768 185.901 164.471 186.074C164.173 186.248 163.929 186.486 163.737 186.79C163.551 187.093 163.411 187.446 163.318 187.849C163.225 188.252 163.179 188.682 163.179 189.141ZM175.204 179.979V194.252H172.974V179.979H175.204ZM174.814 188.853L174.089 188.843C174.095 188.15 174.191 187.508 174.377 186.92C174.569 186.331 174.836 185.82 175.176 185.387C175.523 184.947 175.938 184.609 176.421 184.374C176.905 184.132 177.44 184.011 178.029 184.011C178.525 184.011 178.971 184.08 179.367 184.216C179.77 184.352 180.117 184.572 180.408 184.876C180.699 185.173 180.919 185.563 181.068 186.046C181.222 186.523 181.3 187.106 181.3 187.793V194.252H179.051V187.775C179.051 187.292 178.98 186.908 178.837 186.623C178.701 186.338 178.5 186.133 178.233 186.009C177.967 185.879 177.642 185.814 177.258 185.814C176.855 185.814 176.499 185.895 176.189 186.056C175.886 186.217 175.632 186.437 175.427 186.715C175.223 186.994 175.068 187.316 174.963 187.682C174.863 188.047 174.814 188.438 174.814 188.853ZM189.041 184.197V185.833H183.373V184.197H189.041ZM185.008 181.735H187.248V191.473C187.248 191.783 187.291 192.021 187.378 192.189C187.471 192.35 187.598 192.458 187.759 192.514C187.92 192.57 188.109 192.598 188.326 192.598C188.481 192.598 188.629 192.588 188.772 192.57C188.914 192.551 189.029 192.532 189.116 192.514L189.125 194.224C188.939 194.279 188.722 194.329 188.474 194.372C188.233 194.416 187.954 194.437 187.638 194.437C187.124 194.437 186.669 194.348 186.272 194.168C185.876 193.982 185.566 193.682 185.343 193.267C185.12 192.851 185.008 192.3 185.008 191.613V181.735Z" fill="black"/>
<rect x="219.963" y="166.521" width="93.0614" height="43.4601" rx="21.7301" fill="#FDE3FF"/>
<path d="M242.702 180.722V194.252H240.369V180.722H242.702ZM248.221 186.641V188.49H242.107V186.641H248.221ZM248.993 180.722V182.58H242.107V180.722H248.993ZM255.721 194.437C254.978 194.437 254.306 194.317 253.705 194.075C253.11 193.827 252.602 193.483 252.181 193.044C251.766 192.604 251.447 192.086 251.224 191.492C251.001 190.897 250.889 190.256 250.889 189.568V189.197C250.889 188.41 251.004 187.697 251.233 187.059C251.462 186.421 251.781 185.876 252.19 185.424C252.599 184.965 253.082 184.615 253.64 184.374C254.197 184.132 254.801 184.011 255.452 184.011C256.17 184.011 256.799 184.132 257.338 184.374C257.877 184.615 258.323 184.956 258.676 185.396C259.035 185.83 259.302 186.347 259.475 186.948C259.655 187.549 259.745 188.212 259.745 188.936V189.893H251.976V188.286H257.533V188.109C257.521 187.707 257.44 187.329 257.292 186.976C257.149 186.623 256.929 186.338 256.632 186.121C256.334 185.904 255.938 185.796 255.442 185.796C255.071 185.796 254.739 185.876 254.448 186.037C254.163 186.192 253.925 186.418 253.733 186.715C253.541 187.013 253.392 187.372 253.287 187.793C253.187 188.208 253.138 188.676 253.138 189.197V189.568C253.138 190.008 253.197 190.417 253.314 190.795C253.438 191.166 253.618 191.492 253.853 191.77C254.089 192.049 254.374 192.269 254.708 192.43C255.043 192.585 255.424 192.663 255.851 192.663C256.39 192.663 256.87 192.554 257.292 192.337C257.713 192.12 258.078 191.814 258.388 191.417L259.568 192.56C259.351 192.876 259.069 193.18 258.723 193.471C258.376 193.756 257.951 193.988 257.45 194.168C256.954 194.348 256.378 194.437 255.721 194.437ZM266.789 194.437C266.046 194.437 265.374 194.317 264.773 194.075C264.178 193.827 263.67 193.483 263.249 193.044C262.834 192.604 262.515 192.086 262.292 191.492C262.069 190.897 261.957 190.256 261.957 189.568V189.197C261.957 188.41 262.072 187.697 262.301 187.059C262.53 186.421 262.849 185.876 263.258 185.424C263.667 184.965 264.15 184.615 264.708 184.374C265.265 184.132 265.869 184.011 266.52 184.011C267.238 184.011 267.867 184.132 268.406 184.374C268.945 184.615 269.391 184.956 269.744 185.396C270.103 185.83 270.37 186.347 270.543 186.948C270.723 187.549 270.813 188.212 270.813 188.936V189.893H263.044V188.286H268.601V188.109C268.589 187.707 268.508 187.329 268.36 186.976C268.217 186.623 267.997 186.338 267.7 186.121C267.402 185.904 267.006 185.796 266.51 185.796C266.139 185.796 265.807 185.876 265.516 186.037C265.231 186.192 264.993 186.418 264.801 186.715C264.609 187.013 264.46 187.372 264.355 187.793C264.255 188.208 264.206 188.676 264.206 189.197V189.568C264.206 190.008 264.265 190.417 264.382 190.795C264.506 191.166 264.686 191.492 264.921 191.77C265.157 192.049 265.442 192.269 265.776 192.43C266.111 192.585 266.492 192.663 266.919 192.663C267.458 192.663 267.938 192.554 268.36 192.337C268.781 192.12 269.146 191.814 269.456 191.417L270.636 192.56C270.419 192.876 270.137 193.18 269.791 193.471C269.444 193.756 269.019 193.988 268.518 194.168C268.022 194.348 267.446 194.437 266.789 194.437ZM279.558 192.17V179.979H281.806V194.252H279.771L279.558 192.17ZM273.016 189.336V189.141C273.016 188.379 273.106 187.685 273.285 187.059C273.465 186.427 273.725 185.885 274.066 185.433C274.407 184.975 274.822 184.625 275.311 184.383C275.8 184.135 276.352 184.011 276.965 184.011C277.572 184.011 278.105 184.129 278.563 184.365C279.022 184.6 279.412 184.938 279.734 185.377C280.056 185.811 280.313 186.331 280.505 186.938C280.698 187.539 280.834 188.208 280.914 188.946V189.568C280.834 190.287 280.698 190.943 280.505 191.538C280.313 192.133 280.056 192.647 279.734 193.081C279.412 193.514 279.019 193.849 278.554 194.084C278.096 194.32 277.56 194.437 276.947 194.437C276.339 194.437 275.791 194.31 275.302 194.056C274.819 193.802 274.407 193.446 274.066 192.988C273.725 192.529 273.465 191.99 273.285 191.371C273.106 190.745 273.016 190.067 273.016 189.336ZM275.255 189.141V189.336C275.255 189.794 275.296 190.222 275.376 190.618C275.463 191.015 275.596 191.365 275.776 191.668C275.955 191.966 276.188 192.201 276.473 192.374C276.764 192.542 277.111 192.625 277.513 192.625C278.021 192.625 278.439 192.514 278.768 192.291C279.096 192.068 279.353 191.767 279.539 191.389C279.731 191.005 279.861 190.578 279.929 190.107V188.425C279.892 188.06 279.815 187.719 279.697 187.403C279.586 187.087 279.434 186.811 279.242 186.576C279.05 186.334 278.811 186.149 278.526 186.019C278.247 185.882 277.916 185.814 277.532 185.814C277.123 185.814 276.776 185.901 276.491 186.074C276.206 186.248 275.971 186.486 275.785 186.79C275.605 187.093 275.472 187.446 275.385 187.849C275.299 188.252 275.255 188.682 275.255 189.141ZM290.654 191.529C290.654 191.306 290.598 191.105 290.486 190.925C290.375 190.739 290.161 190.572 289.845 190.423C289.535 190.274 289.077 190.138 288.47 190.014C287.937 189.897 287.448 189.757 287.002 189.596C286.562 189.429 286.184 189.227 285.868 188.992C285.552 188.757 285.307 188.478 285.134 188.156C284.96 187.834 284.874 187.462 284.874 187.041C284.874 186.632 284.964 186.245 285.143 185.879C285.323 185.514 285.58 185.192 285.914 184.913C286.249 184.634 286.655 184.414 287.132 184.253C287.615 184.092 288.154 184.011 288.749 184.011C289.591 184.011 290.313 184.154 290.914 184.439C291.521 184.718 291.985 185.099 292.308 185.582C292.63 186.059 292.791 186.598 292.791 187.199H290.551C290.551 186.932 290.483 186.684 290.347 186.455C290.217 186.22 290.019 186.031 289.752 185.888C289.486 185.74 289.151 185.665 288.749 185.665C288.365 185.665 288.045 185.727 287.792 185.851C287.544 185.969 287.358 186.124 287.234 186.316C287.116 186.508 287.057 186.719 287.057 186.948C287.057 187.115 287.088 187.267 287.15 187.403C287.218 187.533 287.33 187.654 287.485 187.765C287.64 187.871 287.85 187.97 288.117 188.063C288.389 188.156 288.73 188.246 289.139 188.332C289.907 188.493 290.567 188.701 291.118 188.955C291.676 189.203 292.103 189.525 292.4 189.921C292.698 190.312 292.847 190.807 292.847 191.408C292.847 191.854 292.751 192.263 292.558 192.635C292.373 193 292.1 193.319 291.741 193.592C291.381 193.858 290.951 194.066 290.449 194.214C289.954 194.363 289.396 194.437 288.776 194.437C287.866 194.437 287.095 194.276 286.463 193.954C285.831 193.626 285.351 193.208 285.022 192.7C284.7 192.186 284.539 191.653 284.539 191.101H286.704C286.729 191.516 286.844 191.848 287.048 192.096C287.259 192.337 287.519 192.514 287.829 192.625C288.145 192.731 288.47 192.783 288.804 192.783C289.207 192.783 289.545 192.731 289.817 192.625C290.09 192.514 290.297 192.365 290.44 192.179C290.582 191.987 290.654 191.77 290.654 191.529Z" fill="black"/>
<g clip-path="url(#clip0_267_73)">
<path d="M543.257 191.712C545.168 191.712 546.718 190.163 546.718 188.252C546.718 186.341 545.168 184.791 543.257 184.791C541.347 184.791 539.797 186.341 539.797 188.252C539.797 190.163 541.347 191.712 543.257 191.712Z" fill="black"/>
<path d="M557.098 191.712C559.009 191.712 560.558 190.163 560.558 188.252C560.558 186.341 559.009 184.791 557.098 184.791C555.187 184.791 553.638 186.341 553.638 188.252C553.638 190.163 555.187 191.712 557.098 191.712Z" fill="black"/>
<path d="M570.939 191.712C572.85 191.712 574.399 190.163 574.399 188.252C574.399 186.341 572.85 184.791 570.939 184.791C569.028 184.791 567.479 186.341 567.479 188.252C567.479 190.163 569.028 191.712 570.939 191.712Z" fill="black"/>
</g>
<path d="M96.8326 245.927L90.8728 263.663H86.6938L94.5061 242.753H97.1772L96.8326 245.927ZM101.816 263.663L95.8273 245.927L95.4683 242.753H98.1538L106.009 263.663H101.816ZM101.543 255.893V259.01H90.3271V255.893H101.543ZM111.294 251.111V269.637H107.488V248.124H111.007L111.294 251.111ZM121.275 255.735V256.037C121.275 257.167 121.141 258.215 120.873 259.182C120.614 260.139 120.231 260.977 119.724 261.695C119.216 262.404 118.585 262.959 117.828 263.361C117.081 263.754 116.22 263.95 115.243 263.95C114.286 263.95 113.453 263.768 112.744 263.404C112.036 263.031 111.438 262.504 110.949 261.824C110.461 261.145 110.069 260.355 109.772 259.455C109.485 258.545 109.269 257.554 109.125 256.482V255.52C109.269 254.381 109.485 253.347 109.772 252.418C110.069 251.48 110.461 250.671 110.949 249.991C111.438 249.302 112.031 248.77 112.73 248.397C113.439 248.024 114.267 247.837 115.214 247.837C116.201 247.837 117.067 248.024 117.814 248.397C118.57 248.77 119.207 249.307 119.724 250.005C120.241 250.704 120.629 251.537 120.887 252.504C121.146 253.471 121.275 254.548 121.275 255.735ZM117.469 256.037V255.735C117.469 255.046 117.407 254.409 117.282 253.825C117.158 253.232 116.967 252.715 116.708 252.274C116.45 251.824 116.114 251.475 115.703 251.226C115.291 250.977 114.793 250.853 114.209 250.853C113.625 250.853 113.123 250.948 112.701 251.14C112.28 251.331 111.935 251.604 111.667 251.958C111.399 252.313 111.189 252.734 111.035 253.222C110.892 253.701 110.796 254.232 110.748 254.816V257.2C110.834 257.909 111.002 258.545 111.251 259.11C111.5 259.675 111.864 260.125 112.342 260.46C112.831 260.795 113.462 260.963 114.238 260.963C114.822 260.963 115.32 260.833 115.731 260.575C116.143 260.317 116.478 259.962 116.737 259.512C116.995 259.053 117.182 258.526 117.297 257.933C117.412 257.339 117.469 256.707 117.469 256.037ZM127.838 251.111V269.637H124.032V248.124H127.55L127.838 251.111ZM137.818 255.735V256.037C137.818 257.167 137.684 258.215 137.416 259.182C137.158 260.139 136.775 260.977 136.268 261.695C135.76 262.404 135.128 262.959 134.372 263.361C133.625 263.754 132.763 263.95 131.787 263.95C130.83 263.95 129.997 263.768 129.288 263.404C128.58 263.031 127.981 262.504 127.493 261.824C127.005 261.145 126.612 260.355 126.315 259.455C126.028 258.545 125.813 257.554 125.669 256.482V255.52C125.813 254.381 126.028 253.347 126.315 252.418C126.612 251.48 127.005 250.671 127.493 249.991C127.981 249.302 128.575 248.77 129.274 248.397C129.982 248.024 130.81 247.837 131.758 247.837C132.744 247.837 133.611 248.024 134.358 248.397C135.114 248.77 135.751 249.307 136.268 250.005C136.784 250.704 137.172 251.537 137.431 252.504C137.689 253.471 137.818 254.548 137.818 255.735ZM134.013 256.037V255.735C134.013 255.046 133.951 254.409 133.826 253.825C133.702 253.232 133.51 252.715 133.252 252.274C132.993 251.824 132.658 251.475 132.246 251.226C131.835 250.977 131.337 250.853 130.753 250.853C130.169 250.853 129.666 250.948 129.245 251.14C128.824 251.331 128.479 251.604 128.211 251.958C127.943 252.313 127.732 252.734 127.579 253.222C127.436 253.701 127.34 254.232 127.292 254.816V257.2C127.378 257.909 127.546 258.545 127.795 259.11C128.044 259.675 128.407 260.125 128.886 260.46C129.374 260.795 130.006 260.963 130.782 260.963C131.366 260.963 131.864 260.833 132.275 260.575C132.687 260.317 133.022 259.962 133.28 259.512C133.539 259.053 133.726 258.526 133.841 257.933C133.955 257.339 134.013 256.707 134.013 256.037ZM144.611 241.604V263.663H140.806V241.604H144.611ZM152.251 248.124V263.663H148.446V248.124H152.251ZM148.187 244.06C148.187 243.495 148.379 243.026 148.761 242.653C149.154 242.279 149.681 242.093 150.341 242.093C151.002 242.093 151.524 242.279 151.906 242.653C152.299 243.026 152.495 243.495 152.495 244.06C152.495 244.615 152.299 245.08 151.906 245.453C151.524 245.826 151.002 246.013 150.341 246.013C149.681 246.013 149.154 245.826 148.761 245.453C148.379 245.08 148.187 244.615 148.187 244.06ZM162.246 260.963C162.782 260.963 163.261 260.857 163.682 260.647C164.104 260.436 164.439 260.139 164.688 259.756C164.946 259.373 165.085 258.928 165.104 258.421H168.68C168.661 259.474 168.364 260.417 167.79 261.25C167.215 262.083 166.449 262.743 165.492 263.232C164.544 263.71 163.481 263.95 162.304 263.95C161.107 263.95 160.063 263.749 159.173 263.347C158.283 262.945 157.541 262.384 156.947 261.666C156.363 260.948 155.923 260.115 155.626 259.168C155.339 258.22 155.195 257.205 155.195 256.123V255.664C155.195 254.582 155.339 253.567 155.626 252.619C155.923 251.671 156.363 250.838 156.947 250.12C157.541 249.402 158.283 248.842 159.173 248.44C160.063 248.038 161.102 247.837 162.289 247.837C163.544 247.837 164.645 248.081 165.592 248.569C166.55 249.058 167.297 249.747 167.833 250.637C168.378 251.528 168.661 252.576 168.68 253.782H165.104C165.085 253.227 164.961 252.729 164.731 252.289C164.501 251.848 164.175 251.494 163.754 251.226C163.333 250.958 162.821 250.824 162.218 250.824C161.576 250.824 161.04 250.958 160.609 251.226C160.188 251.494 159.858 251.863 159.618 252.332C159.388 252.791 159.226 253.308 159.13 253.883C159.044 254.448 159.001 255.041 159.001 255.664V256.123C159.001 256.755 159.044 257.358 159.13 257.933C159.226 258.507 159.388 259.024 159.618 259.484C159.858 259.934 160.188 260.293 160.609 260.561C161.04 260.829 161.586 260.963 162.246 260.963ZM179.767 260.36V253.194C179.767 252.667 179.676 252.212 179.494 251.829C179.312 251.446 179.034 251.149 178.661 250.939C178.287 250.728 177.813 250.623 177.239 250.623C176.732 250.623 176.286 250.709 175.903 250.881C175.53 251.054 175.243 251.298 175.042 251.614C174.841 251.92 174.74 252.274 174.74 252.677H170.935C170.935 252.035 171.088 251.427 171.394 250.853C171.701 250.269 172.136 249.752 172.701 249.302C173.275 248.842 173.96 248.483 174.755 248.225C175.559 247.966 176.459 247.837 177.454 247.837C178.632 247.837 179.68 248.038 180.599 248.44C181.528 248.833 182.256 249.426 182.782 250.221C183.318 251.015 183.587 252.016 183.587 253.222V260.001C183.587 260.776 183.634 261.441 183.73 261.997C183.835 262.542 183.989 263.016 184.19 263.418V263.663H180.327C180.145 263.27 180.006 262.772 179.91 262.169C179.814 261.556 179.767 260.953 179.767 260.36ZM180.298 254.199L180.327 256.453H177.928C177.335 256.453 176.813 256.516 176.363 256.64C175.913 256.755 175.544 256.927 175.257 257.157C174.97 257.377 174.755 257.645 174.611 257.961C174.467 258.268 174.396 258.617 174.396 259.01C174.396 259.393 174.482 259.737 174.654 260.044C174.836 260.35 175.094 260.594 175.43 260.776C175.774 260.948 176.176 261.035 176.636 261.035C177.306 261.035 177.89 260.901 178.388 260.632C178.886 260.355 179.274 260.02 179.551 259.627C179.829 259.235 179.977 258.861 179.996 258.507L181.088 260.144C180.954 260.537 180.753 260.953 180.485 261.394C180.217 261.834 179.872 262.246 179.451 262.629C179.029 263.012 178.522 263.327 177.928 263.576C177.335 263.825 176.645 263.95 175.86 263.95C174.855 263.95 173.955 263.749 173.161 263.347C172.366 262.945 171.739 262.394 171.279 261.695C170.82 260.996 170.59 260.202 170.59 259.311C170.59 258.488 170.743 257.76 171.05 257.128C171.356 256.497 171.811 255.965 172.414 255.534C173.017 255.094 173.764 254.764 174.654 254.543C175.554 254.314 176.583 254.199 177.742 254.199H180.298ZM194.357 248.124V250.853H185.453V248.124H194.357ZM187.837 244.304H191.643V259.182C191.643 259.642 191.705 259.996 191.83 260.245C191.954 260.494 192.141 260.661 192.39 260.747C192.639 260.833 192.935 260.877 193.28 260.877C193.529 260.877 193.759 260.862 193.969 260.833C194.18 260.805 194.357 260.776 194.501 260.747L194.515 263.591C194.199 263.696 193.84 263.782 193.438 263.849C193.046 263.916 192.6 263.95 192.103 263.95C191.25 263.95 190.504 263.806 189.862 263.519C189.221 263.222 188.723 262.748 188.369 262.097C188.014 261.437 187.837 260.565 187.837 259.484V244.304ZM200.906 248.124V263.663H197.1V248.124H200.906ZM196.842 244.06C196.842 243.495 197.033 243.026 197.416 242.653C197.809 242.279 198.335 242.093 198.996 242.093C199.656 242.093 200.178 242.279 200.561 242.653C200.954 243.026 201.15 243.495 201.15 244.06C201.15 244.615 200.954 245.08 200.561 245.453C200.178 245.826 199.656 246.013 198.996 246.013C198.335 246.013 197.809 245.826 197.416 245.453C197.033 245.08 196.842 244.615 196.842 244.06ZM203.85 256.051V255.75C203.85 254.61 204.012 253.562 204.338 252.605C204.663 251.638 205.137 250.8 205.76 250.092C206.382 249.383 207.143 248.833 208.043 248.44C208.943 248.038 209.967 247.837 211.116 247.837C212.284 247.837 213.318 248.038 214.218 248.44C215.128 248.833 215.894 249.383 216.516 250.092C217.138 250.8 217.612 251.638 217.938 252.605C218.263 253.562 218.426 254.61 218.426 255.75V256.051C218.426 257.181 218.263 258.229 217.938 259.196C217.612 260.154 217.138 260.991 216.516 261.71C215.894 262.418 215.133 262.968 214.233 263.361C213.333 263.754 212.303 263.95 211.145 263.95C209.996 263.95 208.967 263.754 208.057 263.361C207.148 262.968 206.382 262.418 205.76 261.71C205.137 260.991 204.663 260.154 204.338 259.196C204.012 258.229 203.85 257.181 203.85 256.051ZM207.641 255.75V256.051C207.641 256.731 207.708 257.368 207.842 257.961C207.976 258.555 208.182 259.077 208.46 259.527C208.737 259.977 209.096 260.331 209.537 260.589C209.987 260.838 210.523 260.963 211.145 260.963C211.758 260.963 212.284 260.838 212.725 260.589C213.165 260.331 213.524 259.977 213.802 259.527C214.089 259.077 214.3 258.555 214.434 257.961C214.568 257.368 214.635 256.731 214.635 256.051V255.75C214.635 255.08 214.568 254.452 214.434 253.868C214.3 253.275 214.089 252.753 213.802 252.303C213.524 251.844 213.16 251.485 212.71 251.226C212.27 250.958 211.739 250.824 211.116 250.824C210.504 250.824 209.977 250.958 209.537 251.226C209.096 251.485 208.737 251.844 208.46 252.303C208.182 252.753 207.976 253.275 207.842 253.868C207.708 254.452 207.641 255.08 207.641 255.75ZM224.903 251.441V263.663H221.111V248.124H224.673L224.903 251.441ZM224.3 255.333H223.179C223.189 254.204 223.342 253.179 223.639 252.26C223.936 251.341 224.352 250.551 224.888 249.891C225.434 249.23 226.08 248.723 226.827 248.368C227.574 248.014 228.407 247.837 229.326 247.837C230.073 247.837 230.748 247.942 231.351 248.153C231.954 248.363 232.471 248.699 232.902 249.158C233.342 249.618 233.677 250.221 233.907 250.968C234.146 251.705 234.266 252.614 234.266 253.696V263.663H230.446V253.667C230.446 252.959 230.341 252.399 230.13 251.987C229.929 251.576 229.632 251.284 229.24 251.111C228.857 250.939 228.383 250.853 227.818 250.853C227.234 250.853 226.722 250.972 226.281 251.212C225.851 251.441 225.487 251.762 225.19 252.174C224.903 252.586 224.683 253.059 224.529 253.596C224.376 254.132 224.3 254.711 224.3 255.333ZM246.157 259.412C246.157 259.086 246.071 258.794 245.898 258.536C245.726 258.277 245.4 258.043 244.922 257.832C244.453 257.612 243.763 257.406 242.854 257.215C242.05 257.042 241.308 256.827 240.628 256.568C239.948 256.31 239.364 255.999 238.876 255.635C238.388 255.261 238.005 254.826 237.727 254.328C237.459 253.821 237.325 253.237 237.325 252.576C237.325 251.935 237.464 251.331 237.741 250.767C238.019 250.192 238.421 249.689 238.948 249.259C239.474 248.818 240.116 248.474 240.872 248.225C241.628 247.966 242.48 247.837 243.428 247.837C244.749 247.837 245.884 248.052 246.832 248.483C247.789 248.914 248.522 249.508 249.029 250.264C249.536 251.011 249.79 251.853 249.79 252.791H245.999C245.999 252.38 245.903 252.006 245.712 251.671C245.53 251.336 245.247 251.068 244.864 250.867C244.481 250.656 243.998 250.551 243.414 250.551C242.887 250.551 242.442 250.637 242.078 250.81C241.724 250.982 241.456 251.207 241.274 251.485C241.092 251.762 241.001 252.069 241.001 252.404C241.001 252.653 241.049 252.878 241.145 253.079C241.25 253.27 241.418 253.447 241.648 253.61C241.877 253.773 242.188 253.921 242.581 254.055C242.983 254.189 243.476 254.318 244.06 254.443C245.219 254.673 246.229 254.979 247.09 255.362C247.962 255.735 248.641 256.233 249.13 256.856C249.618 257.478 249.862 258.272 249.862 259.239C249.862 259.929 249.714 260.561 249.417 261.135C249.12 261.7 248.689 262.193 248.124 262.614C247.559 263.035 246.884 263.366 246.099 263.605C245.314 263.835 244.429 263.95 243.443 263.95C242.016 263.95 240.81 263.696 239.824 263.189C238.838 262.672 238.091 262.021 237.583 261.236C237.076 260.441 236.822 259.618 236.822 258.766H240.456C240.484 259.369 240.647 259.852 240.944 260.216C241.241 260.58 241.614 260.843 242.064 261.006C242.524 261.159 243.007 261.236 243.514 261.236C244.089 261.236 244.572 261.159 244.965 261.006C245.357 260.843 245.654 260.628 245.855 260.36C246.056 260.082 246.157 259.766 246.157 259.412Z" fill="black"/>
<path d="M94.077 290.184H90.0247L90.0027 288.482H93.6816C94.2893 288.482 94.8201 288.379 95.274 288.174C95.7279 287.969 96.0793 287.676 96.3283 287.296C96.5845 286.908 96.7126 286.446 96.7126 285.912C96.7126 285.326 96.5991 284.85 96.3722 284.484C96.1526 284.111 95.8121 283.84 95.3509 283.672C94.897 283.496 94.3186 283.408 93.6158 283.408H90.4969V297.663H88.3774V281.673H93.6158C94.4357 281.673 95.1678 281.757 95.8121 281.926C96.4564 282.087 97.0018 282.343 97.4484 282.694C97.9023 283.038 98.2464 283.478 98.4807 284.012C98.715 284.547 98.8321 285.187 98.8321 285.934C98.8321 286.593 98.6637 287.19 98.327 287.724C97.9902 288.251 97.5216 288.683 96.9213 289.02C96.3283 289.357 95.6327 289.573 94.8347 289.668L94.077 290.184ZM93.9782 297.663H89.1901L90.3871 295.938H93.9782C94.6517 295.938 95.2228 295.821 95.6913 295.587C96.1672 295.353 96.5296 295.023 96.7785 294.599C97.0274 294.167 97.1519 293.658 97.1519 293.072C97.1519 292.479 97.0457 291.967 96.8334 291.535C96.6211 291.103 96.288 290.77 95.8341 290.535C95.3802 290.301 94.7945 290.184 94.077 290.184H91.057L91.0789 288.482H95.2081L95.6584 289.097C96.4271 289.163 97.0787 289.382 97.6131 289.756C98.1476 290.122 98.5539 290.59 98.8321 291.161C99.1176 291.732 99.2604 292.362 99.2604 293.05C99.2604 294.046 99.0408 294.888 98.6015 295.576C98.1696 296.257 97.5582 296.777 96.7675 297.135C95.9768 297.487 95.047 297.663 93.9782 297.663ZM109.353 294.917V285.78H111.395V297.663H109.452L109.353 294.917ZM109.737 292.413L110.583 292.391C110.583 293.182 110.498 293.914 110.33 294.588C110.169 295.254 109.905 295.832 109.539 296.323C109.173 296.813 108.694 297.198 108.101 297.476C107.508 297.747 106.787 297.882 105.937 297.882C105.359 297.882 104.828 297.798 104.345 297.63C103.869 297.461 103.459 297.201 103.115 296.85C102.771 296.499 102.504 296.041 102.313 295.477C102.13 294.913 102.039 294.236 102.039 293.446V285.78H104.07V293.468C104.07 294.002 104.129 294.445 104.246 294.796C104.371 295.14 104.535 295.415 104.74 295.62C104.953 295.818 105.187 295.957 105.443 296.037C105.707 296.118 105.978 296.158 106.256 296.158C107.12 296.158 107.804 295.993 108.309 295.664C108.815 295.327 109.177 294.877 109.397 294.313C109.624 293.742 109.737 293.109 109.737 292.413ZM121.411 294.511C121.411 294.218 121.345 293.947 121.213 293.698C121.089 293.442 120.829 293.211 120.433 293.006C120.045 292.794 119.46 292.611 118.676 292.457C118.017 292.318 117.421 292.153 116.886 291.963C116.359 291.773 115.909 291.542 115.535 291.271C115.169 291 114.888 290.682 114.69 290.316C114.492 289.95 114.393 289.521 114.393 289.031C114.393 288.562 114.496 288.119 114.701 287.702C114.913 287.285 115.21 286.915 115.59 286.593C115.978 286.271 116.443 286.018 116.985 285.835C117.527 285.652 118.131 285.561 118.797 285.561C119.749 285.561 120.562 285.729 121.235 286.066C121.909 286.403 122.425 286.853 122.784 287.417C123.142 287.973 123.322 288.592 123.322 289.272H121.29C121.29 288.943 121.191 288.625 120.993 288.317C120.803 288.002 120.521 287.742 120.148 287.537C119.782 287.332 119.332 287.23 118.797 287.23C118.233 287.23 117.776 287.318 117.424 287.493C117.08 287.662 116.828 287.878 116.667 288.141C116.513 288.405 116.436 288.683 116.436 288.976C116.436 289.196 116.473 289.393 116.546 289.569C116.626 289.737 116.765 289.895 116.963 290.041C117.161 290.18 117.439 290.312 117.798 290.437C118.156 290.561 118.614 290.685 119.17 290.81C120.144 291.03 120.946 291.293 121.576 291.601C122.205 291.908 122.674 292.285 122.981 292.732C123.289 293.178 123.442 293.72 123.442 294.357C123.442 294.877 123.333 295.353 123.113 295.785C122.901 296.217 122.589 296.59 122.18 296.905C121.777 297.212 121.294 297.454 120.73 297.63C120.173 297.798 119.548 297.882 118.852 297.882C117.805 297.882 116.919 297.696 116.194 297.322C115.47 296.949 114.921 296.466 114.547 295.873C114.174 295.28 113.987 294.654 113.987 293.995H116.03C116.059 294.551 116.22 294.994 116.513 295.323C116.806 295.646 117.164 295.876 117.589 296.015C118.014 296.147 118.435 296.213 118.852 296.213C119.408 296.213 119.873 296.14 120.247 295.993C120.627 295.847 120.917 295.646 121.114 295.389C121.312 295.133 121.411 294.84 121.411 294.511ZM128.318 285.78V297.663H126.276V285.78H128.318ZM126.122 282.628C126.122 282.299 126.221 282.021 126.418 281.794C126.623 281.567 126.924 281.453 127.319 281.453C127.707 281.453 128.004 281.567 128.209 281.794C128.421 282.021 128.527 282.299 128.527 282.628C128.527 282.943 128.421 283.214 128.209 283.441C128.004 283.661 127.707 283.771 127.319 283.771C126.924 283.771 126.623 283.661 126.418 283.441C126.221 283.214 126.122 282.943 126.122 282.628ZM133.612 288.317V297.663H131.58V285.78H133.502L133.612 288.317ZM133.128 291.271L132.283 291.238C132.29 290.426 132.411 289.675 132.645 288.987C132.879 288.291 133.209 287.687 133.634 287.175C134.058 286.662 134.563 286.267 135.149 285.989C135.742 285.703 136.397 285.561 137.115 285.561C137.7 285.561 138.228 285.641 138.696 285.802C139.165 285.956 139.564 286.205 139.893 286.549C140.23 286.893 140.486 287.34 140.662 287.889C140.838 288.431 140.925 289.093 140.925 289.876V297.663H138.883V289.854C138.883 289.232 138.791 288.734 138.608 288.361C138.425 287.98 138.158 287.706 137.807 287.537C137.455 287.362 137.023 287.274 136.511 287.274C136.006 287.274 135.544 287.38 135.127 287.592C134.717 287.805 134.362 288.097 134.062 288.471C133.769 288.844 133.538 289.272 133.37 289.756C133.209 290.232 133.128 290.737 133.128 291.271ZM148.942 297.882C148.115 297.882 147.365 297.743 146.691 297.465C146.025 297.179 145.45 296.78 144.967 296.268C144.491 295.755 144.125 295.148 143.869 294.445C143.612 293.742 143.484 292.973 143.484 292.139V291.677C143.484 290.711 143.627 289.851 143.913 289.097C144.198 288.335 144.586 287.691 145.077 287.164C145.567 286.637 146.124 286.238 146.746 285.967C147.368 285.696 148.012 285.561 148.679 285.561C149.528 285.561 150.26 285.707 150.875 286C151.497 286.293 152.006 286.703 152.402 287.23C152.797 287.75 153.09 288.365 153.28 289.075C153.47 289.778 153.566 290.546 153.566 291.381V292.292H144.692V290.634H151.534V290.48C151.505 289.953 151.395 289.441 151.204 288.943C151.021 288.445 150.729 288.035 150.326 287.713C149.923 287.391 149.374 287.23 148.679 287.23C148.217 287.23 147.793 287.329 147.405 287.526C147.017 287.717 146.684 288.002 146.405 288.383C146.127 288.764 145.911 289.229 145.758 289.778C145.604 290.327 145.527 290.96 145.527 291.677V292.139C145.527 292.702 145.604 293.233 145.758 293.731C145.919 294.222 146.149 294.654 146.449 295.027C146.757 295.4 147.127 295.693 147.559 295.905C147.998 296.118 148.496 296.224 149.052 296.224C149.77 296.224 150.377 296.078 150.875 295.785C151.373 295.492 151.808 295.1 152.182 294.61L153.412 295.587C153.156 295.975 152.83 296.345 152.434 296.696C152.039 297.048 151.552 297.333 150.974 297.553C150.403 297.772 149.726 297.882 148.942 297.882ZM162.856 294.511C162.856 294.218 162.79 293.947 162.659 293.698C162.534 293.442 162.274 293.211 161.879 293.006C161.491 292.794 160.905 292.611 160.122 292.457C159.463 292.318 158.866 292.153 158.332 291.963C157.805 291.773 157.354 291.542 156.981 291.271C156.615 291 156.333 290.682 156.135 290.316C155.938 289.95 155.839 289.521 155.839 289.031C155.839 288.562 155.941 288.119 156.146 287.702C156.359 287.285 156.655 286.915 157.036 286.593C157.424 286.271 157.889 286.018 158.431 285.835C158.972 285.652 159.576 285.561 160.243 285.561C161.194 285.561 162.007 285.729 162.681 286.066C163.354 286.403 163.87 286.853 164.229 287.417C164.588 287.973 164.767 288.592 164.767 289.272H162.735C162.735 288.943 162.637 288.625 162.439 288.317C162.249 288.002 161.967 287.742 161.593 287.537C161.227 287.332 160.777 287.23 160.243 287.23C159.679 287.23 159.221 287.318 158.87 287.493C158.526 287.662 158.273 287.878 158.112 288.141C157.958 288.405 157.881 288.683 157.881 288.976C157.881 289.196 157.918 289.393 157.991 289.569C158.072 289.737 158.211 289.895 158.409 290.041C158.606 290.18 158.884 290.312 159.243 290.437C159.602 290.561 160.06 290.685 160.616 290.81C161.59 291.03 162.391 291.293 163.021 291.601C163.651 291.908 164.119 292.285 164.427 292.732C164.734 293.178 164.888 293.72 164.888 294.357C164.888 294.877 164.778 295.353 164.558 295.785C164.346 296.217 164.035 296.59 163.625 296.905C163.222 297.212 162.739 297.454 162.175 297.63C161.619 297.798 160.993 297.882 160.297 297.882C159.251 297.882 158.365 297.696 157.64 297.322C156.915 296.949 156.366 296.466 155.993 295.873C155.619 295.28 155.433 294.654 155.433 293.995H157.475C157.504 294.551 157.665 294.994 157.958 295.323C158.251 295.646 158.61 295.876 159.035 296.015C159.459 296.147 159.88 296.213 160.297 296.213C160.854 296.213 161.319 296.14 161.692 295.993C162.073 295.847 162.362 295.646 162.56 295.389C162.757 295.133 162.856 294.84 162.856 294.511ZM174.475 294.511C174.475 294.218 174.409 293.947 174.277 293.698C174.153 293.442 173.893 293.211 173.498 293.006C173.11 292.794 172.524 292.611 171.741 292.457C171.082 292.318 170.485 292.153 169.95 291.963C169.423 291.773 168.973 291.542 168.6 291.271C168.234 291 167.952 290.682 167.754 290.316C167.556 289.95 167.458 289.521 167.458 289.031C167.458 288.562 167.56 288.119 167.765 287.702C167.977 287.285 168.274 286.915 168.655 286.593C169.043 286.271 169.508 286.018 170.049 285.835C170.591 285.652 171.195 285.561 171.861 285.561C172.813 285.561 173.626 285.729 174.299 286.066C174.973 286.403 175.489 286.853 175.848 287.417C176.206 287.973 176.386 288.592 176.386 289.272H174.354C174.354 288.943 174.255 288.625 174.058 288.317C173.867 288.002 173.585 287.742 173.212 287.537C172.846 287.332 172.396 287.23 171.861 287.23C171.298 287.23 170.84 287.318 170.489 287.493C170.145 287.662 169.892 287.878 169.731 288.141C169.577 288.405 169.5 288.683 169.5 288.976C169.5 289.196 169.537 289.393 169.61 289.569C169.691 289.737 169.83 289.895 170.027 290.041C170.225 290.18 170.503 290.312 170.862 290.437C171.221 290.561 171.678 290.685 172.235 290.81C173.208 291.03 174.01 291.293 174.64 291.601C175.269 291.908 175.738 292.285 176.045 292.732C176.353 293.178 176.507 293.72 176.507 294.357C176.507 294.877 176.397 295.353 176.177 295.785C175.965 296.217 175.654 296.59 175.244 296.905C174.841 297.212 174.358 297.454 173.794 297.63C173.238 297.798 172.612 297.882 171.916 297.882C170.869 297.882 169.983 297.696 169.259 297.322C168.534 296.949 167.985 296.466 167.611 295.873C167.238 295.28 167.051 294.654 167.051 293.995H169.094C169.123 294.551 169.284 294.994 169.577 295.323C169.87 295.646 170.229 295.876 170.653 296.015C171.078 296.147 171.499 296.213 171.916 296.213C172.473 296.213 172.938 296.14 173.311 295.993C173.692 295.847 173.981 295.646 174.178 295.389C174.376 295.133 174.475 294.84 174.475 294.511ZM189.388 297.663H186.05L186.072 295.938H189.388C190.53 295.938 191.482 295.7 192.244 295.225C193.005 294.741 193.576 294.068 193.957 293.204C194.345 292.333 194.539 291.315 194.539 290.151V289.174C194.539 288.258 194.429 287.446 194.209 286.736C193.99 286.018 193.668 285.414 193.243 284.924C192.818 284.426 192.299 284.049 191.684 283.793C191.076 283.536 190.377 283.408 189.586 283.408H185.984V281.673H189.586C190.633 281.673 191.588 281.849 192.452 282.2C193.316 282.544 194.059 283.046 194.682 283.705C195.311 284.356 195.794 285.147 196.131 286.077C196.468 286.999 196.636 288.039 196.636 289.196V290.151C196.636 291.308 196.468 292.351 196.131 293.281C195.794 294.203 195.308 294.99 194.671 295.642C194.041 296.294 193.28 296.795 192.386 297.146C191.501 297.491 190.501 297.663 189.388 297.663ZM187.181 281.673V297.663H185.061V281.673H187.181ZM204.444 297.882C203.617 297.882 202.867 297.743 202.193 297.465C201.527 297.179 200.952 296.78 200.469 296.268C199.993 295.755 199.627 295.148 199.371 294.445C199.115 293.742 198.986 292.973 198.986 292.139V291.677C198.986 290.711 199.129 289.851 199.415 289.097C199.7 288.335 200.088 287.691 200.579 287.164C201.069 286.637 201.626 286.238 202.248 285.967C202.87 285.696 203.515 285.561 204.181 285.561C205.03 285.561 205.762 285.707 206.377 286C207 286.293 207.508 286.703 207.904 287.23C208.299 287.75 208.592 288.365 208.782 289.075C208.973 289.778 209.068 290.546 209.068 291.381V292.292H200.194V290.634H207.036V290.48C207.007 289.953 206.897 289.441 206.707 288.943C206.524 288.445 206.231 288.035 205.828 287.713C205.425 287.391 204.876 287.23 204.181 287.23C203.72 287.23 203.295 287.329 202.907 287.526C202.519 287.717 202.186 288.002 201.908 288.383C201.629 288.764 201.413 289.229 201.26 289.778C201.106 290.327 201.029 290.96 201.029 291.677V292.139C201.029 292.702 201.106 293.233 201.26 293.731C201.421 294.222 201.651 294.654 201.952 295.027C202.259 295.4 202.629 295.693 203.061 295.905C203.5 296.118 203.998 296.224 204.554 296.224C205.272 296.224 205.879 296.078 206.377 295.785C206.875 295.492 207.311 295.1 207.684 294.61L208.914 295.587C208.658 295.975 208.332 296.345 207.937 296.696C207.541 297.048 207.054 297.333 206.476 297.553C205.905 297.772 205.228 297.882 204.444 297.882ZM214.899 295.829L218.15 285.78H220.225L215.953 297.663H214.592L214.899 295.829ZM212.187 285.78L215.536 295.884L215.767 297.663H214.405L210.1 285.78H212.187ZM226.957 297.882C226.13 297.882 225.379 297.743 224.706 297.465C224.04 297.179 223.465 296.78 222.982 296.268C222.506 295.755 222.14 295.148 221.884 294.445C221.627 293.742 221.499 292.973 221.499 292.139V291.677C221.499 290.711 221.642 289.851 221.928 289.097C222.213 288.335 222.601 287.691 223.092 287.164C223.582 286.637 224.139 286.238 224.761 285.967C225.383 285.696 226.027 285.561 226.694 285.561C227.543 285.561 228.275 285.707 228.89 286C229.512 286.293 230.021 286.703 230.416 287.23C230.812 287.75 231.105 288.365 231.295 289.075C231.485 289.778 231.581 290.546 231.581 291.381V292.292H222.707V290.634H229.549V290.48C229.52 289.953 229.41 289.441 229.219 288.943C229.036 288.445 228.744 288.035 228.341 287.713C227.938 287.391 227.389 287.23 226.694 287.23C226.232 287.23 225.808 287.329 225.42 287.526C225.032 287.717 224.699 288.002 224.42 288.383C224.142 288.764 223.926 289.229 223.772 289.778C223.619 290.327 223.542 290.96 223.542 291.677V292.139C223.542 292.702 223.619 293.233 223.772 293.731C223.934 294.222 224.164 294.654 224.464 295.027C224.772 295.4 225.142 295.693 225.573 295.905C226.013 296.118 226.511 296.224 227.067 296.224C227.785 296.224 228.392 296.078 228.89 295.785C229.388 295.492 229.823 295.1 230.197 294.61L231.427 295.587C231.171 295.975 230.845 296.345 230.449 296.696C230.054 297.048 229.567 297.333 228.989 297.553C228.418 297.772 227.741 297.882 226.957 297.882ZM236.16 280.794V297.663H234.117V280.794H236.16ZM238.883 291.853V291.601C238.883 290.744 239.008 289.95 239.257 289.218C239.506 288.478 239.865 287.838 240.333 287.296C240.802 286.747 241.369 286.322 242.035 286.022C242.701 285.714 243.448 285.561 244.276 285.561C245.11 285.561 245.861 285.714 246.527 286.022C247.2 286.322 247.771 286.747 248.24 287.296C248.716 287.838 249.078 288.478 249.327 289.218C249.576 289.95 249.701 290.744 249.701 291.601V291.853C249.701 292.71 249.576 293.504 249.327 294.236C249.078 294.968 248.716 295.609 248.24 296.158C247.771 296.7 247.204 297.124 246.538 297.432C245.879 297.732 245.132 297.882 244.298 297.882C243.463 297.882 242.712 297.732 242.046 297.432C241.38 297.124 240.809 296.7 240.333 296.158C239.865 295.609 239.506 294.968 239.257 294.236C239.008 293.504 238.883 292.71 238.883 291.853ZM240.915 291.601V291.853C240.915 292.446 240.985 293.006 241.124 293.533C241.263 294.053 241.472 294.514 241.75 294.917C242.035 295.32 242.39 295.638 242.815 295.873C243.24 296.1 243.734 296.213 244.298 296.213C244.854 296.213 245.341 296.1 245.758 295.873C246.183 295.638 246.534 295.32 246.812 294.917C247.091 294.514 247.299 294.053 247.438 293.533C247.585 293.006 247.658 292.446 247.658 291.853V291.601C247.658 291.015 247.585 290.462 247.438 289.942C247.299 289.415 247.087 288.95 246.801 288.548C246.523 288.138 246.172 287.816 245.747 287.581C245.33 287.347 244.839 287.23 244.276 287.23C243.719 287.23 243.229 287.347 242.804 287.581C242.387 287.816 242.035 288.138 241.75 288.548C241.472 288.95 241.263 289.415 241.124 289.942C240.985 290.462 240.915 291.015 240.915 291.601ZM254.28 288.064V302.231H252.237V285.78H254.104L254.28 288.064ZM262.286 291.623V291.853C262.286 292.717 262.183 293.519 261.978 294.258C261.773 294.99 261.473 295.627 261.078 296.169C260.69 296.711 260.21 297.132 259.639 297.432C259.068 297.732 258.413 297.882 257.673 297.882C256.919 297.882 256.253 297.758 255.675 297.509C255.096 297.26 254.606 296.898 254.203 296.422C253.8 295.946 253.478 295.375 253.237 294.708C253.002 294.042 252.841 293.292 252.754 292.457V291.227C252.841 290.349 253.006 289.562 253.248 288.866C253.489 288.171 253.808 287.578 254.203 287.087C254.606 286.589 255.093 286.212 255.664 285.956C256.235 285.692 256.894 285.561 257.64 285.561C258.387 285.561 259.05 285.707 259.628 286C260.207 286.285 260.693 286.695 261.089 287.23C261.484 287.764 261.781 288.405 261.978 289.152C262.183 289.891 262.286 290.715 262.286 291.623ZM260.243 291.853V291.623C260.243 291.03 260.181 290.473 260.056 289.953C259.932 289.426 259.738 288.965 259.474 288.57C259.218 288.167 258.889 287.852 258.486 287.625C258.083 287.391 257.604 287.274 257.047 287.274C256.535 287.274 256.088 287.362 255.708 287.537C255.334 287.713 255.016 287.951 254.752 288.251C254.489 288.544 254.273 288.881 254.104 289.261C253.943 289.635 253.822 290.023 253.742 290.426V293.27C253.888 293.782 254.093 294.266 254.357 294.719C254.62 295.166 254.972 295.528 255.411 295.807C255.85 296.078 256.403 296.213 257.069 296.213C257.618 296.213 258.091 296.1 258.486 295.873C258.889 295.638 259.218 295.32 259.474 294.917C259.738 294.514 259.932 294.053 260.056 293.533C260.181 293.006 260.243 292.446 260.243 291.853ZM266.898 288.141V297.663H264.856V285.78H266.788L266.898 288.141ZM266.481 291.271L265.536 291.238C265.544 290.426 265.65 289.675 265.855 288.987C266.06 288.291 266.364 287.687 266.766 287.175C267.169 286.662 267.671 286.267 268.271 285.989C268.871 285.703 269.567 285.561 270.357 285.561C270.914 285.561 271.426 285.641 271.895 285.802C272.363 285.956 272.77 286.201 273.114 286.538C273.458 286.875 273.725 287.307 273.916 287.834C274.106 288.361 274.201 288.998 274.201 289.745V297.663H272.169V289.844C272.169 289.221 272.063 288.723 271.851 288.35C271.646 287.977 271.353 287.706 270.972 287.537C270.592 287.362 270.145 287.274 269.633 287.274C269.032 287.274 268.531 287.38 268.128 287.592C267.725 287.805 267.403 288.097 267.162 288.471C266.92 288.844 266.744 289.272 266.635 289.756C266.532 290.232 266.481 290.737 266.481 291.271ZM274.179 290.151L272.817 290.568C272.825 289.917 272.931 289.291 273.136 288.69C273.348 288.09 273.652 287.556 274.047 287.087C274.45 286.619 274.944 286.249 275.53 285.978C276.116 285.7 276.785 285.561 277.54 285.561C278.176 285.561 278.74 285.645 279.231 285.813C279.729 285.982 280.146 286.241 280.483 286.593C280.827 286.937 281.087 287.38 281.262 287.922C281.438 288.463 281.526 289.108 281.526 289.854V297.663H279.483V289.833C279.483 289.166 279.377 288.65 279.165 288.284C278.96 287.911 278.667 287.651 278.286 287.504C277.913 287.351 277.466 287.274 276.947 287.274C276.5 287.274 276.105 287.351 275.76 287.504C275.416 287.658 275.127 287.87 274.893 288.141C274.659 288.405 274.479 288.709 274.355 289.053C274.238 289.397 274.179 289.763 274.179 290.151ZM289.532 297.882C288.704 297.882 287.954 297.743 287.28 297.465C286.614 297.179 286.039 296.78 285.556 296.268C285.08 295.755 284.714 295.148 284.458 294.445C284.202 293.742 284.074 292.973 284.074 292.139V291.677C284.074 290.711 284.216 289.851 284.502 289.097C284.788 288.335 285.176 287.691 285.666 287.164C286.157 286.637 286.713 286.238 287.335 285.967C287.958 285.696 288.602 285.561 289.268 285.561C290.117 285.561 290.85 285.707 291.464 286C292.087 286.293 292.596 286.703 292.991 287.23C293.386 287.75 293.679 288.365 293.87 289.075C294.06 289.778 294.155 290.546 294.155 291.381V292.292H285.282V290.634H292.123V290.48C292.094 289.953 291.984 289.441 291.794 288.943C291.611 288.445 291.318 288.035 290.915 287.713C290.513 287.391 289.964 287.23 289.268 287.23C288.807 287.23 288.382 287.329 287.994 287.526C287.606 287.717 287.273 288.002 286.995 288.383C286.717 288.764 286.501 289.229 286.347 289.778C286.193 290.327 286.116 290.96 286.116 291.677V292.139C286.116 292.702 286.193 293.233 286.347 293.731C286.508 294.222 286.739 294.654 287.039 295.027C287.346 295.4 287.716 295.693 288.148 295.905C288.587 296.118 289.085 296.224 289.642 296.224C290.359 296.224 290.967 296.078 291.464 295.785C291.962 295.492 292.398 295.1 292.771 294.61L294.001 295.587C293.745 295.975 293.419 296.345 293.024 296.696C292.629 297.048 292.142 297.333 291.563 297.553C290.992 297.772 290.315 297.882 289.532 297.882ZM298.559 288.317V297.663H296.527V285.78H298.449L298.559 288.317ZM298.076 291.271L297.23 291.238C297.237 290.426 297.358 289.675 297.592 288.987C297.827 288.291 298.156 287.687 298.581 287.175C299.005 286.662 299.511 286.267 300.096 285.989C300.689 285.703 301.344 285.561 302.062 285.561C302.648 285.561 303.175 285.641 303.643 285.802C304.112 285.956 304.511 286.205 304.84 286.549C305.177 286.893 305.433 287.34 305.609 287.889C305.785 288.431 305.873 289.093 305.873 289.876V297.663H303.83V289.854C303.83 289.232 303.739 288.734 303.555 288.361C303.372 287.98 303.105 287.706 302.754 287.537C302.402 287.362 301.97 287.274 301.458 287.274C300.953 287.274 300.492 287.38 300.074 287.592C299.664 287.805 299.309 288.097 299.009 288.471C298.716 288.844 298.486 289.272 298.317 289.756C298.156 290.232 298.076 290.737 298.076 291.271ZM313.933 285.78V287.34H307.509V285.78H313.933ZM309.683 282.892H311.715V294.719C311.715 295.122 311.777 295.426 311.902 295.631C312.026 295.836 312.187 295.971 312.385 296.037C312.583 296.103 312.795 296.136 313.022 296.136C313.19 296.136 313.366 296.121 313.549 296.092C313.739 296.056 313.882 296.026 313.977 296.004L313.988 297.663C313.827 297.714 313.615 297.761 313.351 297.805C313.095 297.857 312.784 297.882 312.418 297.882C311.92 297.882 311.462 297.783 311.045 297.586C310.628 297.388 310.295 297.059 310.046 296.597C309.804 296.129 309.683 295.499 309.683 294.708V282.892ZM322.873 281.673H324.926L330.164 294.708L335.392 281.673H337.456L330.955 297.663H329.352L322.873 281.673ZM322.203 281.673H324.015L324.311 291.425V297.663H322.203V281.673ZM336.303 281.673H338.115V297.663H336.007V291.425L336.303 281.673ZM348.537 295.631V289.514C348.537 289.046 348.442 288.639 348.252 288.295C348.069 287.944 347.79 287.673 347.417 287.482C347.044 287.292 346.582 287.197 346.033 287.197C345.521 287.197 345.071 287.285 344.682 287.46C344.302 287.636 344.002 287.867 343.782 288.152C343.57 288.438 343.463 288.745 343.463 289.075H341.432C341.432 288.65 341.542 288.229 341.761 287.812C341.981 287.395 342.296 287.018 342.706 286.681C343.123 286.337 343.621 286.066 344.199 285.868C344.785 285.663 345.437 285.561 346.154 285.561C347.018 285.561 347.779 285.707 348.438 286C349.104 286.293 349.624 286.736 349.998 287.329C350.378 287.914 350.569 288.65 350.569 289.536V295.071C350.569 295.466 350.602 295.887 350.668 296.334C350.741 296.78 350.847 297.165 350.986 297.487V297.663H348.867C348.764 297.428 348.684 297.117 348.625 296.729C348.566 296.334 348.537 295.968 348.537 295.631ZM348.889 290.458L348.91 291.886H346.857C346.279 291.886 345.762 291.934 345.308 292.029C344.855 292.117 344.474 292.252 344.166 292.435C343.859 292.618 343.625 292.849 343.463 293.127C343.302 293.398 343.222 293.716 343.222 294.083C343.222 294.456 343.306 294.796 343.474 295.104C343.643 295.411 343.895 295.657 344.232 295.84C344.576 296.015 344.997 296.103 345.495 296.103C346.117 296.103 346.667 295.971 347.142 295.708C347.618 295.444 347.995 295.122 348.274 294.741C348.559 294.361 348.713 293.991 348.735 293.632L349.602 294.61C349.551 294.917 349.412 295.258 349.185 295.631C348.958 296.004 348.654 296.363 348.274 296.707C347.9 297.044 347.454 297.326 346.934 297.553C346.421 297.772 345.843 297.882 345.199 297.882C344.393 297.882 343.687 297.725 343.079 297.41C342.479 297.095 342.01 296.674 341.673 296.147C341.344 295.613 341.179 295.016 341.179 294.357C341.179 293.72 341.304 293.16 341.553 292.677C341.802 292.186 342.16 291.78 342.629 291.458C343.097 291.128 343.661 290.879 344.32 290.711C344.979 290.543 345.715 290.458 346.527 290.458H348.889ZM355.796 288.317V297.663H353.764V285.78H355.686L355.796 288.317ZM355.313 291.271L354.467 291.238C354.475 290.426 354.595 289.675 354.83 288.987C355.064 288.291 355.393 287.687 355.818 287.175C356.243 286.662 356.748 286.267 357.334 285.989C357.927 285.703 358.582 285.561 359.299 285.561C359.885 285.561 360.412 285.641 360.881 285.802C361.349 285.956 361.748 286.205 362.078 286.549C362.414 286.893 362.671 287.34 362.846 287.889C363.022 288.431 363.11 289.093 363.11 289.876V297.663H361.067V289.854C361.067 289.232 360.976 288.734 360.793 288.361C360.61 287.98 360.343 287.706 359.991 287.537C359.64 287.362 359.208 287.274 358.695 287.274C358.19 287.274 357.729 287.38 357.312 287.592C356.902 287.805 356.547 288.097 356.246 288.471C355.953 288.844 355.723 289.272 355.554 289.756C355.393 290.232 355.313 290.737 355.313 291.271ZM373.202 295.631V289.514C373.202 289.046 373.107 288.639 372.917 288.295C372.734 287.944 372.456 287.673 372.082 287.482C371.709 287.292 371.248 287.197 370.698 287.197C370.186 287.197 369.736 287.285 369.348 287.46C368.967 287.636 368.667 287.867 368.447 288.152C368.235 288.438 368.129 288.745 368.129 289.075H366.097C366.097 288.65 366.207 288.229 366.427 287.812C366.646 287.395 366.961 287.018 367.371 286.681C367.788 286.337 368.286 286.066 368.864 285.868C369.45 285.663 370.102 285.561 370.819 285.561C371.683 285.561 372.445 285.707 373.103 286C373.77 286.293 374.29 286.736 374.663 287.329C375.044 287.914 375.234 288.65 375.234 289.536V295.071C375.234 295.466 375.267 295.887 375.333 296.334C375.406 296.78 375.512 297.165 375.651 297.487V297.663H373.532C373.429 297.428 373.349 297.117 373.29 296.729C373.232 296.334 373.202 295.968 373.202 295.631ZM373.554 290.458L373.576 291.886H371.522C370.944 291.886 370.428 291.934 369.974 292.029C369.52 292.117 369.139 292.252 368.832 292.435C368.524 292.618 368.29 292.849 368.129 293.127C367.968 293.398 367.887 293.716 367.887 294.083C367.887 294.456 367.971 294.796 368.14 295.104C368.308 295.411 368.561 295.657 368.897 295.84C369.242 296.015 369.662 296.103 370.16 296.103C370.783 296.103 371.332 295.971 371.808 295.708C372.283 295.444 372.661 295.122 372.939 294.741C373.224 294.361 373.378 293.991 373.4 293.632L374.268 294.61C374.216 294.917 374.077 295.258 373.85 295.631C373.623 296.004 373.319 296.363 372.939 296.707C372.565 297.044 372.119 297.326 371.599 297.553C371.086 297.772 370.508 297.882 369.864 297.882C369.058 297.882 368.352 297.725 367.744 297.41C367.144 297.095 366.675 296.674 366.339 296.147C366.009 295.613 365.844 295.016 365.844 294.357C365.844 293.72 365.969 293.16 366.218 292.677C366.467 292.186 366.826 291.78 367.294 291.458C367.763 291.128 368.326 290.879 368.985 290.711C369.644 290.543 370.38 290.458 371.193 290.458H373.554ZM386.128 285.78H387.973V297.41C387.973 298.457 387.761 299.35 387.336 300.09C386.911 300.829 386.318 301.389 385.557 301.77C384.803 302.158 383.932 302.352 382.943 302.352C382.533 302.352 382.05 302.286 381.494 302.154C380.945 302.03 380.403 301.814 379.868 301.506C379.341 301.206 378.898 300.8 378.539 300.287L379.605 299.079C380.103 299.68 380.622 300.097 381.164 300.331C381.713 300.565 382.255 300.683 382.789 300.683C383.434 300.683 383.99 300.562 384.459 300.32C384.927 300.079 385.29 299.72 385.546 299.244C385.809 298.775 385.941 298.197 385.941 297.509V288.394L386.128 285.78ZM377.946 291.853V291.623C377.946 290.715 378.053 289.891 378.265 289.152C378.485 288.405 378.796 287.764 379.198 287.23C379.608 286.695 380.103 286.285 380.681 286C381.259 285.707 381.911 285.561 382.636 285.561C383.382 285.561 384.034 285.692 384.59 285.956C385.154 286.212 385.63 286.589 386.018 287.087C386.413 287.578 386.725 288.171 386.952 288.866C387.179 289.562 387.336 290.349 387.424 291.227V292.238C387.343 293.109 387.186 293.892 386.952 294.588C386.725 295.283 386.413 295.876 386.018 296.367C385.63 296.857 385.154 297.234 384.59 297.498C384.027 297.754 383.368 297.882 382.614 297.882C381.904 297.882 381.259 297.732 380.681 297.432C380.11 297.132 379.619 296.711 379.209 296.169C378.799 295.627 378.485 294.99 378.265 294.258C378.053 293.519 377.946 292.717 377.946 291.853ZM379.978 291.623V291.853C379.978 292.446 380.037 293.003 380.154 293.522C380.278 294.042 380.465 294.5 380.714 294.895C380.97 295.291 381.296 295.602 381.691 295.829C382.087 296.048 382.559 296.158 383.108 296.158C383.781 296.158 384.338 296.015 384.777 295.73C385.216 295.444 385.564 295.067 385.82 294.599C386.084 294.13 386.289 293.621 386.435 293.072V290.426C386.355 290.023 386.23 289.635 386.062 289.261C385.901 288.881 385.689 288.544 385.425 288.251C385.169 287.951 384.85 287.713 384.47 287.537C384.089 287.362 383.642 287.274 383.13 287.274C382.573 287.274 382.094 287.391 381.691 287.625C381.296 287.852 380.97 288.167 380.714 288.57C380.465 288.965 380.278 289.426 380.154 289.953C380.037 290.473 379.978 291.03 379.978 291.623ZM395.99 297.882C395.162 297.882 394.412 297.743 393.738 297.465C393.072 297.179 392.497 296.78 392.014 296.268C391.538 295.755 391.172 295.148 390.916 294.445C390.66 293.742 390.532 292.973 390.532 292.139V291.677C390.532 290.711 390.674 289.851 390.96 289.097C391.245 288.335 391.633 287.691 392.124 287.164C392.615 286.637 393.171 286.238 393.793 285.967C394.416 285.696 395.06 285.561 395.726 285.561C396.575 285.561 397.307 285.707 397.922 286C398.545 286.293 399.054 286.703 399.449 287.23C399.844 287.75 400.137 288.365 400.327 289.075C400.518 289.778 400.613 290.546 400.613 291.381V292.292H391.74V290.634H398.581V290.48C398.552 289.953 398.442 289.441 398.252 288.943C398.069 288.445 397.776 288.035 397.373 287.713C396.971 287.391 396.422 287.23 395.726 287.23C395.265 287.23 394.84 287.329 394.452 287.526C394.064 287.717 393.731 288.002 393.453 288.383C393.175 288.764 392.959 289.229 392.805 289.778C392.651 290.327 392.574 290.96 392.574 291.677V292.139C392.574 292.702 392.651 293.233 392.805 293.731C392.966 294.222 393.197 294.654 393.497 295.027C393.804 295.4 394.174 295.693 394.606 295.905C395.045 296.118 395.543 296.224 396.099 296.224C396.817 296.224 397.425 296.078 397.922 295.785C398.42 295.492 398.856 295.1 399.229 294.61L400.459 295.587C400.203 295.975 399.877 296.345 399.482 296.696C399.086 297.048 398.6 297.333 398.021 297.553C397.45 297.772 396.773 297.882 395.99 297.882ZM405.017 287.647V297.663H402.985V285.78H404.962L405.017 287.647ZM408.729 285.714L408.718 287.603C408.549 287.567 408.388 287.545 408.234 287.537C408.088 287.523 407.92 287.515 407.729 287.515C407.261 287.515 406.847 287.589 406.488 287.735C406.129 287.881 405.826 288.086 405.577 288.35C405.328 288.614 405.13 288.928 404.984 289.294C404.845 289.653 404.753 290.049 404.709 290.48L404.138 290.81C404.138 290.092 404.208 289.419 404.347 288.789C404.493 288.16 404.716 287.603 405.017 287.12C405.317 286.629 405.698 286.249 406.159 285.978C406.627 285.7 407.184 285.561 407.828 285.561C407.974 285.561 408.143 285.579 408.333 285.616C408.524 285.645 408.655 285.678 408.729 285.714Z" fill="#9AABB4"/>
<g clip-path="url(#clip1_267_73)">
<g clip-path="url(#clip2_267_73)">
<g clip-path="url(#clip3_267_73)">
<rect x="86.5215" y="356.583" width="406.564" height="10.3804" rx="5.19018" fill="#F4F9FC"/>
<rect x="86.5215" y="356.583" width="242.209" height="10.3804" rx="5.19018" fill="#8DD794"/>
</g>
</g>
<path d="M546.165 349.939C546.165 350.858 545.952 351.632 545.526 352.26C545.1 352.889 544.519 353.365 543.782 353.689C543.052 354.007 542.228 354.166 541.309 354.166C540.39 354.166 539.562 354.007 538.825 353.689C538.089 353.365 537.507 352.889 537.082 352.26C536.656 351.632 536.443 350.858 536.443 349.939C536.443 349.331 536.561 348.78 536.798 348.286C537.034 347.786 537.369 347.357 537.801 346.999C538.241 346.634 538.754 346.354 539.342 346.158C539.937 345.962 540.586 345.864 541.289 345.864C542.221 345.864 543.056 346.036 543.792 346.381C544.529 346.725 545.107 347.202 545.526 347.81C545.952 348.418 546.165 349.128 546.165 349.939ZM543.711 349.817C543.711 349.324 543.61 348.891 543.407 348.52C543.204 348.148 542.921 347.861 542.556 347.658C542.191 347.455 541.768 347.354 541.289 347.354C540.802 347.354 540.38 347.455 540.021 347.658C539.663 347.861 539.383 348.148 539.18 348.52C538.984 348.891 538.886 349.324 538.886 349.817C538.886 350.317 538.984 350.75 539.18 351.115C539.376 351.473 539.656 351.747 540.021 351.936C540.386 352.125 540.816 352.22 541.309 352.22C541.802 352.22 542.228 352.125 542.586 351.936C542.944 351.747 543.221 351.473 543.417 351.115C543.613 350.75 543.711 350.317 543.711 349.817ZM545.83 343.086C545.83 343.823 545.634 344.478 545.242 345.053C544.857 345.627 544.323 346.08 543.64 346.411C542.958 346.735 542.181 346.898 541.309 346.898C540.43 346.898 539.646 346.735 538.957 346.411C538.274 346.08 537.737 345.627 537.345 345.053C536.96 344.478 536.767 343.823 536.767 343.086C536.767 342.208 536.96 341.468 537.345 340.866C537.737 340.258 538.274 339.795 538.957 339.477C539.64 339.16 540.42 339.001 541.299 339.001C542.177 339.001 542.958 339.16 543.64 339.477C544.323 339.795 544.857 340.258 545.242 340.866C545.634 341.468 545.83 342.208 545.83 343.086ZM543.387 343.167C543.387 342.728 543.299 342.343 543.123 342.012C542.954 341.674 542.715 341.41 542.404 341.221C542.093 341.032 541.724 340.937 541.299 340.937C540.873 340.937 540.505 341.028 540.194 341.211C539.883 341.393 539.643 341.65 539.474 341.981C539.305 342.312 539.221 342.708 539.221 343.167C539.221 343.62 539.305 344.015 539.474 344.353C539.643 344.684 539.883 344.945 540.194 345.134C540.511 345.323 540.883 345.418 541.309 345.418C541.735 345.418 542.103 345.323 542.414 345.134C542.725 344.945 542.965 344.684 543.134 344.353C543.302 344.015 543.387 343.62 543.387 343.167ZM557.934 345.347V347.759C557.934 348.915 557.819 349.902 557.589 350.719C557.366 351.53 557.042 352.189 556.616 352.696C556.19 353.203 555.68 353.575 555.085 353.811C554.497 354.048 553.838 354.166 553.108 354.166C552.527 354.166 551.987 354.092 551.486 353.943C550.993 353.794 550.547 353.561 550.148 353.243C549.75 352.926 549.408 352.517 549.125 352.017C548.847 351.51 548.631 350.905 548.476 350.202C548.327 349.5 548.253 348.685 548.253 347.759V345.347C548.253 344.184 548.368 343.204 548.597 342.407C548.827 341.603 549.155 340.951 549.581 340.45C550.006 339.944 550.513 339.575 551.101 339.346C551.696 339.116 552.358 339.001 553.088 339.001C553.676 339.001 554.217 339.075 554.71 339.224C555.21 339.366 555.656 339.592 556.048 339.903C556.447 340.214 556.785 340.619 557.062 341.12C557.346 341.613 557.562 342.211 557.711 342.914C557.859 343.61 557.934 344.421 557.934 345.347ZM555.491 348.104V344.982C555.491 344.394 555.457 343.877 555.389 343.431C555.322 342.978 555.22 342.596 555.085 342.285C554.957 341.968 554.795 341.711 554.599 341.515C554.403 341.312 554.18 341.167 553.93 341.079C553.679 340.984 553.399 340.937 553.088 340.937C552.71 340.937 552.372 341.011 552.074 341.16C551.777 341.302 551.527 341.532 551.324 341.849C551.122 342.167 550.966 342.586 550.858 343.106C550.757 343.62 550.706 344.245 550.706 344.982V348.104C550.706 348.699 550.74 349.222 550.807 349.675C550.875 350.128 550.976 350.517 551.111 350.841C551.247 351.159 551.409 351.422 551.598 351.632C551.794 351.834 552.017 351.983 552.267 352.078C552.524 352.172 552.804 352.22 553.108 352.22C553.494 352.22 553.835 352.145 554.132 351.997C554.43 351.848 554.68 351.611 554.882 351.287C555.085 350.956 555.237 350.527 555.339 350C555.44 349.472 555.491 348.841 555.491 348.104ZM560.012 342.823V342.042C560.012 341.481 560.133 340.971 560.377 340.511C560.62 340.052 560.975 339.683 561.441 339.406C561.907 339.129 562.468 338.991 563.124 338.991C563.8 338.991 564.367 339.129 564.827 339.406C565.293 339.683 565.648 340.052 565.891 340.511C566.135 340.971 566.256 341.481 566.256 342.042V342.823C566.256 343.37 566.135 343.873 565.891 344.333C565.655 344.793 565.303 345.161 564.837 345.438C564.377 345.715 563.813 345.854 563.144 345.854C562.482 345.854 561.914 345.715 561.441 345.438C560.975 345.161 560.62 344.793 560.377 344.333C560.133 343.873 560.012 343.37 560.012 342.823ZM561.705 342.042V342.823C561.705 343.093 561.755 343.35 561.857 343.593C561.965 343.836 562.127 344.032 562.343 344.181C562.56 344.33 562.826 344.404 563.144 344.404C563.468 344.404 563.732 344.33 563.935 344.181C564.144 344.032 564.3 343.836 564.401 343.593C564.502 343.35 564.553 343.093 564.553 342.823V342.042C564.553 341.765 564.499 341.505 564.391 341.261C564.29 341.011 564.134 340.812 563.925 340.663C563.715 340.515 563.448 340.44 563.124 340.44C562.813 340.44 562.549 340.515 562.333 340.663C562.124 340.812 561.965 341.011 561.857 341.261C561.755 341.505 561.705 341.765 561.705 342.042ZM567.128 351.135V350.344C567.128 349.79 567.25 349.283 567.493 348.824C567.743 348.364 568.101 347.996 568.567 347.719C569.034 347.442 569.595 347.303 570.25 347.303C570.926 347.303 571.494 347.442 571.953 347.719C572.42 347.996 572.771 348.364 573.007 348.824C573.251 349.283 573.372 349.79 573.372 350.344V351.135C573.372 351.689 573.251 352.196 573.007 352.656C572.771 353.115 572.423 353.483 571.963 353.76C571.504 354.038 570.943 354.176 570.281 354.176C569.612 354.176 569.041 354.038 568.567 353.76C568.101 353.483 567.743 353.115 567.493 352.656C567.25 352.196 567.128 351.689 567.128 351.135ZM568.831 350.344V351.135C568.831 351.405 568.885 351.662 568.993 351.905C569.108 352.149 569.274 352.348 569.49 352.503C569.706 352.652 569.966 352.726 570.27 352.726C570.615 352.726 570.892 352.652 571.102 352.503C571.311 352.348 571.46 352.152 571.548 351.916C571.642 351.672 571.69 351.412 571.69 351.135V350.344C571.69 350.067 571.636 349.807 571.527 349.564C571.426 349.32 571.267 349.124 571.051 348.976C570.842 348.827 570.575 348.753 570.25 348.753C569.933 348.753 569.669 348.827 569.46 348.976C569.25 349.124 569.091 349.32 568.983 349.564C568.882 349.807 568.831 350.067 568.831 350.344ZM570.858 341.312L563.651 352.848L562.404 352.128L569.612 340.592L570.858 341.312Z" fill="black"/>
</g>
</g>
<defs>
<filter id="filter0_d_267_73" x="17" y="100.46" width="626.92" height="339.485" filterUnits="userSpaceOnUse" color-interpolation-filters="sRGB">
<feFlood flood-opacity="0" result="BackgroundImageFix"/>
<feColorMatrix in="SourceAlpha" type="matrix" values="0 0 0 0 0 0 0 0 0 0 0 0 0 0 0 0 0 0 127 0" result="hardAlpha"/>
<feOffset dy="3.46012"/>
<feGaussianBlur stdDeviation="14"/>
<feComposite in2="hardAlpha" operator="out"/>
<feColorMatrix type="matrix" values="0 0 0 0 0 0 0 0 0 0 0 0 0 0 0 0 0 0 0.36 0"/>
<feBlend mode="normal" in2="BackgroundImageFix" result="effect1_dropShadow_267_73"/>
<feBlend mode="normal" in="SourceGraphic" in2="effect1_dropShadow_267_73" result="shape"/>
</filter>
<linearGradient id="paint0_linear_267_73" x1="29" y1="542.5" x2="67" y2="542.5" gradientUnits="userSpaceOnUse">
<stop stop-color="#EC008C"/>
<stop offset="1" stop-color="#FC6767"/>
</linearGradient>
<linearGradient id="paint1_linear_267_73" x1="54" y1="542.5" x2="74" y2="542.5" gradientUnits="userSpaceOnUse">
<stop stop-color="#EC008C"/>
<stop offset="1" stop-color="#FC6767"/>
</linearGradient>
<linearGradient id="paint2_linear_267_73" x1="79" y1="542.5" x2="119" y2="542.5" gradientUnits="userSpaceOnUse">
<stop stop-color="#EC008C"/>
<stop offset="1" stop-color="#FC6767"/>
</linearGradient>
<linearGradient id="paint3_linear_267_73" x1="104" y1="542.5" x2="137" y2="542.5" gradientUnits="userSpaceOnUse">
<stop stop-color="#EC008C"/>
<stop offset="1" stop-color="#FC6767"/>
</linearGradient>
<linearGradient id="paint4_linear_267_73" x1="129" y1="542.5" x2="172" y2="542.5" gradientUnits="userSpaceOnUse">
<stop stop-color="#EC008C"/>
<stop offset="1" stop-color="#FC6767"/>
</linearGradient>
<linearGradient id="paint5_linear_267_73" x1="154" y1="542.5" x2="211" y2="542.5" gradientUnits="userSpaceOnUse">
<stop stop-color="#EC008C"/>
<stop offset="1" stop-color="#FC6767"/>
</linearGradient>
<linearGradient id="paint6_linear_267_73" x1="179" y1="542.5" x2="215" y2="542.5" gradientUnits="userSpaceOnUse">
<stop stop-color="#EC008C"/>
<stop offset="1" stop-color="#FC6767"/>
</linearGradient>
<clipPath id="clip0_267_73">
<rect x="539.797" y="184.791" width="34.6012" height="6.92025" rx="3.46012" fill="white"/>
</clipPath>
<clipPath id="clip1_267_73">
<rect width="487.877" height="40" fill="white" transform="translate(86.5215 326.963)"/>
</clipPath>
<clipPath id="clip2_267_73">
<rect width="406.564" height="10.3804" fill="white" transform="translate(86.5215 356.583)"/>
</clipPath>
<clipPath id="clip3_267_73">
<rect x="86.5215" y="356.583" width="406.564" height="10.3804" rx="5.19018" fill="white"/>
</clipPath>
</defs>
</svg>
