<svg width="1827" height="328" viewBox="0 0 1827 328" fill="none" xmlns="http://www.w3.org/2000/svg">
<path d="M157.179 2.58746H187.149L232.559 117.021L278.424 2.58746H308.848L252.54 140.18L314.298 285.947L431.002 0.316958H465.513L328.829 322.729H300.675L233.013 163.339L164.898 322.729H137.198L0.967768 0.316958H35.0254L152.183 285.947L213.487 140.18L157.179 2.58746ZM461.501 254.614C461.501 239.78 465.739 227.065 474.216 216.469C482.692 205.571 494.347 197.245 509.181 191.494C524.318 185.439 541.725 182.412 561.403 182.412C572.907 182.412 584.865 183.32 597.277 185.136C609.689 186.953 620.739 189.677 630.426 193.31V173.329C630.426 153.349 624.523 137.456 612.716 125.649C600.91 113.842 584.562 107.939 563.674 107.939C550.959 107.939 538.395 110.361 525.983 115.205C513.874 119.746 501.159 126.557 487.839 135.639L476.032 113.842C491.471 103.247 506.608 95.3755 521.442 90.229C536.276 84.7798 551.413 82.0552 566.852 82.0552C595.915 82.0552 618.923 90.3803 635.876 107.031C652.829 123.681 661.305 146.689 661.305 176.054V285.492C661.305 289.731 662.213 292.909 664.03 295.029C665.846 296.845 668.722 297.905 672.658 298.207V322.729C669.328 323.031 666.452 323.334 664.03 323.637C661.608 323.94 659.792 323.94 658.581 323.637C651.012 323.334 645.26 320.912 641.325 316.371C637.389 311.83 635.27 306.987 634.967 301.84L634.513 284.584C623.918 298.207 610.143 308.803 593.19 316.371C576.237 323.637 558.981 327.27 541.423 327.27C526.286 327.27 512.511 324.091 500.099 317.734C487.99 311.073 478.454 302.294 471.491 291.396C464.831 280.195 461.501 267.934 461.501 254.614ZM619.982 272.778C623.312 268.539 625.885 264.452 627.702 260.517C629.518 256.581 630.426 253.1 630.426 250.073V215.561C620.133 211.625 609.386 208.598 598.185 206.479C587.287 204.36 576.237 203.3 565.036 203.3C542.936 203.3 525.075 207.69 511.452 216.469C497.829 225.248 491.017 237.206 491.017 252.343C491.017 261.122 493.288 269.448 497.829 277.319C502.37 284.887 509.03 291.244 517.809 296.391C526.589 301.235 536.882 303.657 548.688 303.657C563.522 303.657 577.297 300.781 590.011 295.029C603.029 289.277 613.019 281.86 619.982 272.778ZM791.313 322.729L695.498 86.1421H727.739L808.569 291.85L889.853 86.1421H920.278L824.462 322.729H791.313ZM1057.25 327.27C1040.29 327.27 1024.55 324.091 1010.02 317.734C995.488 311.073 982.925 302.143 972.329 290.942C961.733 279.438 953.408 266.269 947.353 251.435C941.602 236.601 938.726 220.707 938.726 203.754C938.726 181.655 943.721 161.371 953.711 142.905C964.004 124.438 978.081 109.755 995.942 98.8569C1013.8 87.6557 1034.09 82.0552 1056.79 82.0552C1080.1 82.0552 1100.39 87.6557 1117.64 98.8569C1135.2 110.058 1148.97 124.892 1158.96 143.359C1168.95 161.523 1173.95 181.503 1173.95 203.3C1173.95 205.722 1173.95 208.144 1173.95 210.566C1173.95 212.685 1173.8 214.35 1173.5 215.561H970.967C972.48 232.514 977.173 247.651 985.044 260.971C993.218 273.989 1003.66 284.433 1016.38 292.304C1029.39 299.872 1043.47 303.657 1058.61 303.657C1074.05 303.657 1088.58 299.721 1102.2 291.85C1116.13 283.979 1125.82 273.686 1131.26 260.971L1158.06 268.237C1153.21 279.438 1145.8 289.579 1135.81 298.661C1125.82 307.743 1114.01 314.858 1100.39 320.004C1087.07 324.848 1072.69 327.27 1057.25 327.27ZM970.059 193.31H1144.89C1143.68 176.054 1138.98 160.917 1130.81 147.9C1122.94 134.882 1112.49 124.741 1099.48 117.475C1086.76 109.907 1072.69 106.123 1057.25 106.123C1041.81 106.123 1027.73 109.907 1015.01 117.475C1002.3 124.741 991.855 135.034 983.682 148.354C975.81 161.371 971.269 176.357 970.059 193.31ZM1495.87 0.316958V322.729H1421.4V190.585H1292.89V322.729H1218.41V0.316958H1292.89V125.195H1421.4V0.316958H1495.87ZM1557.66 322.729V0.316958H1702.97C1718.11 0.316958 1732.03 3.49567 1744.75 9.85309C1757.77 15.9078 1768.97 24.233 1778.35 34.8287C1787.74 45.1216 1795 56.7769 1800.15 69.7944C1805.6 82.812 1808.32 95.9809 1808.32 109.301C1808.32 122.622 1806.2 135.336 1801.96 147.446C1797.73 159.252 1791.67 169.999 1783.8 179.687C1775.93 189.072 1766.54 196.791 1755.65 202.846L1826.49 322.729H1744.29L1682.54 218.74H1632.13V322.729H1557.66ZM1632.13 153.803H1700.25C1706.3 153.803 1711.6 151.987 1716.14 148.354C1720.98 144.418 1724.92 139.121 1727.95 132.46C1730.97 125.8 1732.49 118.081 1732.49 109.301C1732.49 100.522 1730.67 92.9536 1727.04 86.5962C1723.71 79.936 1719.47 74.7895 1714.32 71.1567C1709.18 67.5239 1703.73 65.7075 1697.98 65.7075H1632.13V153.803Z" fill="#0161FE"/>
</svg>
