<svg width="837" height="837" viewBox="0 0 837 837" fill="none" xmlns="http://www.w3.org/2000/svg">
<path d="M0 10C0 4.47717 4.47715 0 10 0H827C832.523 0 837 4.47715 837 10V827C837 832.523 832.523 837 827 837H10C4.47717 837 0 832.523 0 827V10Z" fill="#EAE0D5"/>
<path d="M273.994 139.396L236.348 283.81H193.764L170.724 188.768L146.86 283.81H104.277L67.6591 139.396H105.305L126.083 244.518L151.798 139.396H190.472L215.159 244.518L236.142 139.396H273.994ZM284.641 226.209C284.641 214.415 286.836 204.06 291.224 195.146C295.75 186.231 301.853 179.374 309.533 174.574C317.213 169.774 325.785 167.374 335.248 167.374C343.339 167.374 350.402 169.02 356.437 172.311C362.608 175.602 367.34 179.923 370.631 185.271V169.02H405.809V283.81H370.631V267.558C367.203 272.907 362.403 277.227 356.231 280.518C350.197 283.81 343.134 285.456 335.042 285.456C325.716 285.456 317.213 283.056 309.533 278.256C301.853 273.318 295.75 266.393 291.224 257.478C286.836 248.427 284.641 238.003 284.641 226.209ZM370.631 226.415C370.631 217.637 368.163 210.712 363.225 205.637C358.425 200.563 352.528 198.026 345.534 198.026C338.539 198.026 332.573 200.563 327.636 205.637C322.836 210.574 320.436 217.432 320.436 226.209C320.436 234.986 322.836 241.981 327.636 247.192C332.573 252.267 338.539 254.804 345.534 254.804C352.528 254.804 358.425 252.267 363.225 247.192C368.163 242.118 370.631 235.192 370.631 226.415ZM482.894 250.895L507.785 169.02H545.226L504.494 283.81H461.088L420.355 169.02H458.002L482.894 250.895ZM668.24 224.563C668.24 227.855 668.035 231.283 667.623 234.849H588.01C588.559 241.981 590.822 247.466 594.799 251.307C598.913 255.009 603.919 256.861 609.816 256.861C618.594 256.861 624.697 253.158 628.125 245.752H665.566C663.646 253.295 660.149 260.084 655.074 266.118C650.137 272.153 643.897 276.884 636.354 280.313C628.811 283.741 620.377 285.456 611.051 285.456C599.805 285.456 589.793 283.056 581.016 278.256C572.239 273.455 565.381 266.598 560.444 257.684C555.507 248.769 553.038 238.346 553.038 226.415C553.038 214.483 555.438 204.06 560.239 195.146C565.176 186.231 572.033 179.374 580.81 174.574C589.588 169.774 599.668 167.374 611.051 167.374C622.16 167.374 632.034 169.705 640.674 174.368C649.314 179.031 656.034 185.683 660.834 194.323C665.772 202.963 668.24 213.043 668.24 224.563ZM632.24 215.306C632.24 209.272 630.183 204.472 626.068 200.906C621.954 197.34 616.811 195.557 610.639 195.557C604.742 195.557 599.736 197.271 595.622 200.7C591.645 204.129 589.176 208.997 588.216 215.306H632.24Z" fill="#06283D"/>
<path d="M172.716 371.273V464.54H149.997V426.144H114.657V464.54H91.9376V371.273H114.657V407.809H149.997V371.273H172.716ZM236.681 464.54L217.283 429.332H211.836V464.54H189.117V371.273H227.247C234.599 371.273 240.843 372.557 245.981 375.126C251.206 377.694 255.104 381.237 257.672 385.755C260.241 390.183 261.525 395.143 261.525 400.635C261.525 406.835 259.754 412.371 256.211 417.242C252.756 422.114 247.619 425.568 240.799 427.605L262.322 464.54H236.681ZM211.836 413.256H225.919C230.082 413.256 233.182 412.238 235.219 410.201C237.345 408.164 238.408 405.285 238.408 401.565C238.408 398.022 237.345 395.232 235.219 393.195C233.182 391.158 230.082 390.139 225.919 390.139H211.836V413.256Z" fill="#06283D"/>
</svg>
