<svg width="857" height="857" viewBox="0 0 857 857" fill="none" xmlns="http://www.w3.org/2000/svg">
<path d="M428.5 0C665.162 0 857 191.838 857 428.5C857 665.162 665.162 857 428.5 857C191.838 857 0 665.162 0 428.5C0 191.838 191.838 0 428.5 0Z" fill="#7B2869"/>
<path d="M572.417 558.943C526.262 558.943 483.889 534.347 456.781 490.97L398.824 398.246C378.261 365.35 346.517 346.992 311.768 347.868C276.532 348.76 245.277 369.106 226.021 403.694L183.953 479.259C178.949 488.248 167.602 491.478 158.612 486.474C149.623 481.468 146.391 470.124 151.397 461.133L193.464 385.568C218.919 339.853 262.79 311.834 310.823 310.62C358.431 309.399 403.1 334.791 430.417 378.498L488.377 471.221C510.791 507.089 546.643 525.662 584.288 520.933C624.157 515.914 657.602 485.52 671.572 441.616C674.692 431.811 685.17 426.393 694.975 429.512C704.78 432.632 710.2 443.11 707.079 452.915C688.656 510.819 643.389 551.049 588.946 557.905C583.396 558.598 577.879 558.943 572.417 558.943Z" fill="#FFBABA"/>
</svg>
