<svg width="2816" height="685" viewBox="0 0 2816 685" fill="none" xmlns="http://www.w3.org/2000/svg">
<path d="M342.5 0C531.664 0 685 153.336 685 342.5C685 531.664 531.664 685 342.5 685C153.336 685 0 531.664 0 342.5C0 153.336 153.336 0 342.5 0Z" fill="#0161FE"/>
<path d="M522.71 390.426C510.589 403.773 496.045 412.266 481.5 418.333C466.955 424.399 449.987 426.826 434.23 426.826C417.261 426.826 401.505 424.399 385.748 417.119C369.991 411.053 355.447 401.346 343.326 389.213L293.632 339.466C287.572 333.4 280.299 328.546 273.027 326.12C265.755 323.693 257.27 321.267 248.786 321.267C240.302 321.267 233.029 322.48 224.545 326.12C217.272 328.546 210 333.4 203.94 339.466L172.427 371.013C166.366 377.08 159.094 380.72 150.61 380.72C142.125 380.72 134.853 377.08 128.793 371.013C122.732 364.946 119.096 357.666 119.096 349.173C119.096 340.68 121.52 333.4 128.793 326.12L159.094 295.787C171.214 283.653 185.759 275.16 200.304 267.88C216.06 261.814 231.817 258.174 247.574 258.174C263.331 258.174 280.299 261.814 294.844 267.88C310.601 273.947 323.933 283.653 336.054 295.787L385.748 345.533C391.808 351.6 399.08 356.453 407.565 360.093C414.837 362.52 423.322 364.946 431.806 364.946C440.29 364.946 448.775 363.733 456.047 360.093C464.531 356.453 470.592 351.6 477.864 345.533L509.377 313.987C515.438 307.92 522.71 304.28 531.194 304.28C539.679 304.28 546.951 306.707 553.011 313.987C559.071 320.053 562.708 327.333 562.708 335.826C562.708 344.32 560.284 351.6 553.011 357.666L522.71 390.426Z" fill="white"/>
<path d="M994.179 143.587H1024.15L1069.56 258.021L1115.42 143.587H1145.85L1089.54 281.18L1151.3 426.947L1268 141.317H1302.51L1165.83 463.729H1137.67L1070.01 304.339L1001.9 463.729H974.198L837.968 141.317H872.025L989.183 426.947L1050.49 281.18L994.179 143.587ZM1298.5 395.614C1298.5 380.78 1302.74 368.065 1311.22 357.469C1319.69 346.571 1331.35 338.245 1346.18 332.494C1361.32 326.439 1378.73 323.412 1398.4 323.412C1409.91 323.412 1421.86 324.32 1434.28 326.136C1446.69 327.953 1457.74 330.677 1467.43 334.31V314.329C1467.43 294.349 1461.52 278.456 1449.72 266.649C1437.91 254.842 1421.56 248.939 1400.67 248.939C1387.96 248.939 1375.4 251.361 1362.98 256.205C1350.87 260.746 1338.16 267.557 1324.84 276.639L1313.03 254.842C1328.47 244.247 1343.61 236.375 1358.44 231.229C1373.28 225.78 1388.41 223.055 1403.85 223.055C1432.91 223.055 1455.92 231.38 1472.88 248.031C1489.83 264.681 1498.31 287.689 1498.31 317.054V426.492C1498.31 430.731 1499.21 433.909 1501.03 436.029C1502.85 437.845 1505.72 438.905 1509.66 439.207V463.729C1506.33 464.031 1503.45 464.334 1501.03 464.637C1498.61 464.94 1496.79 464.94 1495.58 464.637C1488.01 464.334 1482.26 461.912 1478.32 457.371C1474.39 452.83 1472.27 447.987 1471.97 442.84L1471.51 425.584C1460.92 439.207 1447.14 449.803 1430.19 457.371C1413.24 464.637 1395.98 468.27 1378.42 468.27C1363.29 468.27 1349.51 465.091 1337.1 458.734C1324.99 452.073 1315.45 443.294 1308.49 432.396C1301.83 421.195 1298.5 408.934 1298.5 395.614ZM1456.98 413.778C1460.31 409.539 1462.89 405.452 1464.7 401.517C1466.52 397.581 1467.43 394.1 1467.43 391.073V356.561C1457.13 352.625 1446.39 349.598 1435.19 347.479C1424.29 345.36 1413.24 344.3 1402.04 344.3C1379.94 344.3 1362.07 348.69 1348.45 357.469C1334.83 366.248 1328.02 378.206 1328.02 393.343C1328.02 402.122 1330.29 410.448 1334.83 418.319C1339.37 425.887 1346.03 432.244 1354.81 437.391C1363.59 442.235 1373.88 444.657 1385.69 444.657C1400.52 444.657 1414.3 441.781 1427.01 436.029C1440.03 430.277 1450.02 422.86 1456.98 413.778ZM1628.31 463.729L1532.5 227.142H1564.74L1645.57 432.85L1726.85 227.142H1757.28L1661.46 463.729H1628.31ZM1894.25 468.27C1877.29 468.27 1861.55 465.091 1847.02 458.734C1832.49 452.073 1819.92 443.143 1809.33 431.942C1798.73 420.438 1790.41 407.269 1784.35 392.435C1778.6 377.601 1775.73 361.707 1775.73 344.754C1775.73 322.655 1780.72 302.371 1790.71 283.905C1801 265.438 1815.08 250.755 1832.94 239.857C1850.8 228.656 1871.09 223.055 1893.79 223.055C1917.1 223.055 1937.39 228.656 1954.64 239.857C1972.2 251.058 1985.97 265.892 1995.96 284.359C2005.95 302.523 2010.95 322.503 2010.95 344.3C2010.95 346.722 2010.95 349.144 2010.95 351.566C2010.95 353.685 2010.8 355.35 2010.5 356.561H1807.97C1809.48 373.514 1814.17 388.651 1822.04 401.971C1830.22 414.989 1840.66 425.433 1853.38 433.304C1866.39 440.872 1880.47 444.657 1895.61 444.657C1911.05 444.657 1925.58 440.721 1939.2 432.85C1953.13 424.979 1962.82 414.686 1968.26 401.971L1995.06 409.237C1990.21 420.438 1982.8 430.579 1972.81 439.661C1962.82 448.743 1951.01 455.858 1937.39 461.004C1924.07 465.848 1909.69 468.27 1894.25 468.27ZM1807.06 334.31H1981.89C1980.68 317.054 1975.98 301.917 1967.81 288.9C1959.94 275.882 1949.49 265.741 1936.48 258.475C1923.76 250.907 1909.69 247.123 1894.25 247.123C1878.81 247.123 1864.73 250.907 1852.01 258.475C1839.3 265.741 1828.86 276.034 1820.68 289.354C1812.81 302.371 1808.27 317.357 1807.06 334.31ZM2332.87 141.317V463.729H2258.4V331.585H2129.89V463.729H2055.41V141.317H2129.89V266.195H2258.4V141.317H2332.87ZM2394.66 463.729V141.317H2539.97C2555.11 141.317 2569.03 144.496 2581.75 150.853C2594.77 156.908 2605.97 165.233 2615.35 175.829C2624.74 186.122 2632 197.777 2637.15 210.794C2642.6 223.812 2645.32 236.981 2645.32 250.301C2645.32 263.622 2643.2 276.336 2638.96 288.446C2634.73 300.252 2628.67 310.999 2620.8 320.687C2612.93 330.072 2603.54 337.791 2592.65 343.846L2663.49 463.729H2581.29L2519.54 359.74H2469.13V463.729H2394.66ZM2469.13 294.803H2537.25C2543.3 294.803 2548.6 292.987 2553.14 289.354C2557.98 285.418 2561.92 280.121 2564.95 273.46C2567.97 266.8 2569.49 259.081 2569.49 250.301C2569.49 241.522 2567.67 233.954 2564.04 227.596C2560.71 220.936 2556.47 215.79 2551.32 212.157C2546.18 208.524 2540.73 206.708 2534.98 206.708H2469.13V294.803Z" fill="#0161FE"/>
</svg>
