<svg width="685" height="685" viewBox="0 0 685 685" fill="none" xmlns="http://www.w3.org/2000/svg">
<path d="M342.5 0C531.664 0 685 153.336 685 342.5C685 531.664 531.664 685 342.5 685C153.336 685 0 531.664 0 342.5C0 153.336 153.336 0 342.5 0Z" fill="#0161FE"/>
<path d="M522.71 390.426C510.589 403.773 496.045 412.266 481.5 418.333C466.955 424.399 449.987 426.826 434.23 426.826C417.261 426.826 401.505 424.399 385.748 417.119C369.991 411.053 355.447 401.346 343.326 389.213L293.632 339.466C287.572 333.4 280.299 328.546 273.027 326.12C265.755 323.693 257.27 321.267 248.786 321.267C240.302 321.267 233.029 322.48 224.545 326.12C217.272 328.546 210 333.4 203.94 339.466L172.427 371.013C166.366 377.08 159.094 380.72 150.61 380.72C142.125 380.72 134.853 377.08 128.793 371.013C122.732 364.946 119.096 357.666 119.096 349.173C119.096 340.68 121.52 333.4 128.793 326.12L159.094 295.787C171.214 283.653 185.759 275.16 200.304 267.88C216.06 261.814 231.817 258.174 247.574 258.174C263.331 258.174 280.299 261.814 294.844 267.88C310.601 273.947 323.933 283.653 336.054 295.787L385.748 345.533C391.808 351.6 399.08 356.453 407.565 360.093C414.837 362.52 423.322 364.946 431.806 364.946C440.29 364.946 448.775 363.733 456.047 360.093C464.531 356.453 470.592 351.6 477.864 345.533L509.377 313.987C515.438 307.92 522.71 304.28 531.194 304.28C539.679 304.28 546.951 306.707 553.011 313.987C559.071 320.053 562.708 327.333 562.708 335.826C562.708 344.32 560.284 351.6 553.011 357.666L522.71 390.426Z" fill="white"/>
</svg>
